<svg width="24" height="25" viewBox="0 0 24 25" fill="none" xmlns="http://www.w3.org/2000/svg">
<path fill-rule="evenodd" clip-rule="evenodd" d="M1.81702 4.81722L10.917 1.24922C11.6114 0.974219 12.3846 0.974219 13.079 1.24922L22.179 4.81722C22.8423 5.10006 23.2665 5.75833 23.25 6.47922V18.1072C23.2672 18.8271 22.8447 19.4851 22.183 19.7692L13.083 23.3382C12.3882 23.6112 11.6158 23.6112 10.921 23.3382L1.82102 19.7692C1.15772 19.4864 0.733536 18.8281 0.750015 18.1072V6.47922C0.732866 5.75929 1.15529 5.10131 1.81702 4.81722Z" stroke="white" stroke-width="1.5" stroke-linecap="round" stroke-linejoin="round"/>
<path d="M12 9.64602L1.104 5.37402" stroke="white" stroke-width="1.5" stroke-linecap="round" stroke-linejoin="round"/>
<path d="M12 9.64602L22.896 5.37402" stroke="white" stroke-width="1.5" stroke-linecap="round" stroke-linejoin="round"/>
<path d="M12 23.5435V9.64648" stroke="white" stroke-width="1.5" stroke-linecap="round" stroke-linejoin="round"/>
</svg>
