<svg width="133" height="152" viewBox="0 0 133 152" fill="none" xmlns="http://www.w3.org/2000/svg">
<g clip-path="url(#clip0_12725_294313)">
<path fill-rule="evenodd" clip-rule="evenodd" d="M109.641 16.8205C109.641 26.1102 102.11 33.641 92.8205 33.641C88.8141 33.641 85.1348 32.2403 82.2457 29.9018L77.2775 32.3707L79.7506 27.4094C77.4053 24.5182 76 20.8334 76 16.8205C76 7.53079 83.5308 0 92.8205 0C102.11 0 109.641 7.53079 109.641 16.8205Z" fill="white" fill-opacity="0.8"/>
<path d="M95.317 13.2487C95.317 11.8345 94.1089 10.8793 92.1608 10.8793C91.3668 10.833 90.5737 10.9861 89.854 11.3247C89.1342 11.6633 88.5106 12.1766 88.04 12.8179L85.5862 11.2258C87.0098 9.30585 89.2762 8.14453 92.4418 8.14453C96.188 8.14453 98.6231 9.8397 98.6231 12.743C98.6231 16.8638 94.3056 17.2385 94.3056 20.2354H91.1025C91.1025 16.4799 95.317 15.7774 95.317 13.2487ZM90.6904 24.2907C90.6904 23.8929 90.8083 23.5039 91.0292 23.173C91.25 22.8421 91.5639 22.584 91.9313 22.4313C92.2987 22.2786 92.7031 22.2382 93.0934 22.3152C93.4838 22.3921 93.8426 22.5829 94.1245 22.8636C94.4065 23.1443 94.599 23.5022 94.6778 23.8922C94.7565 24.2821 94.718 24.6867 94.567 25.0548C94.416 25.4229 94.1594 25.738 93.8295 25.9604C93.4996 26.1828 93.1112 26.3025 92.7134 26.3043C92.4461 26.3134 92.1798 26.2676 91.9308 26.1697C91.6819 26.0719 91.4557 25.924 91.2661 25.7353C91.0766 25.5466 90.9277 25.3211 90.8287 25.0726C90.7296 24.8242 90.6826 24.5581 90.6904 24.2907Z" fill="url(#paint0_linear_12725_294313)"/>
<path d="M100.804 29H124.506C126.668 29 128.74 29.8585 130.268 31.3867C131.797 32.9149 132.655 34.9875 132.655 37.1487V46.9811C132.655 49.1429 131.797 51.2163 130.269 52.7456C128.741 54.275 126.668 55.1351 124.506 55.137H120.512L119.565 60.9679L115.031 55.137H100.804C99.733 55.137 98.6728 54.926 97.6837 54.5161C96.6945 54.1061 95.7959 53.5052 95.0392 52.7478C94.2824 51.9903 93.6823 51.0911 93.2732 50.1017C92.8641 49.1122 92.6541 48.0518 92.655 46.9811V37.1487C92.6541 36.0783 92.8642 35.0183 93.2734 34.0292C93.6825 33.0401 94.2827 32.1414 95.0396 31.3846C95.7965 30.6277 96.6951 30.0275 97.6842 29.6183C98.6733 29.2092 99.7333 28.999 100.804 29Z" fill="white"/>
<path d="M121.89 41.5076C121.89 41.8334 121.986 42.1518 122.167 42.4227C122.348 42.6936 122.606 42.9048 122.907 43.0294C123.208 43.1541 123.539 43.1867 123.858 43.1232C124.178 43.0596 124.471 42.9027 124.702 42.6724C124.932 42.442 125.089 42.1485 125.152 41.8289C125.216 41.5094 125.183 41.1782 125.059 40.8772C124.934 40.5762 124.723 40.319 124.452 40.138C124.181 39.957 123.863 39.8604 123.537 39.8604C123.1 39.8604 122.681 40.0339 122.372 40.3428C122.063 40.6517 121.89 41.0707 121.89 41.5076Z" fill="#23B973"/>
<path d="M114.637 41.5076C114.637 41.8334 114.734 42.1518 114.915 42.4227C115.096 42.6936 115.353 42.9048 115.654 43.0294C115.955 43.1541 116.287 43.1867 116.606 43.1232C116.926 43.0596 117.219 42.9027 117.449 42.6724C117.68 42.442 117.837 42.1485 117.9 41.8289C117.964 41.5094 117.931 41.1782 117.807 40.8772C117.682 40.5762 117.471 40.319 117.2 40.138C116.929 39.957 116.611 39.8604 116.285 39.8604C115.848 39.8604 115.429 40.0339 115.12 40.3428C114.811 40.6517 114.637 41.0707 114.637 41.5076Z" fill="#23B973"/>
<path d="M107.378 41.5076C107.378 41.8334 107.475 42.1518 107.656 42.4227C107.837 42.6936 108.094 42.9048 108.395 43.0294C108.696 43.1541 109.027 43.1867 109.347 43.1232C109.666 43.0596 109.96 42.9027 110.19 42.6724C110.42 42.442 110.577 42.1485 110.641 41.8289C110.704 41.5094 110.672 41.1782 110.547 40.8772C110.422 40.5762 110.211 40.319 109.94 40.138C109.67 39.957 109.351 39.8604 109.025 39.8604C108.588 39.8604 108.169 40.0339 107.861 40.3428C107.552 40.6517 107.378 41.0707 107.378 41.5076Z" fill="#23B973"/>
<path d="M100.126 41.5076C100.126 41.8334 100.222 42.1518 100.403 42.4227C100.584 42.6936 100.842 42.9048 101.143 43.0294C101.444 43.1541 101.775 43.1867 102.094 43.1232C102.414 43.0596 102.708 42.9027 102.938 42.6724C103.168 42.442 103.325 42.1485 103.389 41.8289C103.452 41.5094 103.42 41.1782 103.295 40.8772C103.17 40.5762 102.959 40.319 102.688 40.138C102.417 39.957 102.099 39.8604 101.773 39.8604C101.336 39.8604 100.917 40.0339 100.608 40.3428C100.299 40.6517 100.126 41.0707 100.126 41.5076Z" fill="#23B973"/>
<path d="M70.5625 53.4414H28.8247V95.1792H70.5625V53.4414Z" fill="white"/>
<path d="M54.473 108.794L12.745 107.013V65.2754H54.473V108.794Z" fill="#F5F4F4"/>
<path d="M25.1272 73.2441C24.7862 73.4213 24.5004 73.6903 24.3015 74.0214C24.1026 74.3524 23.9982 74.7326 24 75.1198V86.333L38.2015 91.2697L25.1272 73.2441Z" fill="#2173C4"/>
<path d="M25.1272 73.2441C24.7862 73.4213 24.5004 73.6903 24.3015 74.0214C24.1026 74.3524 23.9982 74.7326 24 75.1198V86.333L38.2015 91.2697L25.1272 73.2441Z" fill="black" fill-opacity="0.2"/>
<path d="M24 86.333V95.8844C23.9997 96.2558 24.0964 96.6208 24.2802 96.9425C24.464 97.2643 24.7285 97.5315 25.047 97.7172C25.3656 97.9029 25.727 98.0007 26.0949 98.0006C26.4628 98.0004 26.8241 97.9025 27.1426 97.7166L38.2014 91.2698L24 86.333Z" fill="#2173C4"/>
<path d="M24 86.333V95.8844C23.9997 96.2558 24.0964 96.6208 24.2802 96.9425C24.464 97.2643 24.7285 97.5315 25.047 97.7172C25.3656 97.9029 25.727 98.0007 26.0949 98.0006C26.4628 98.0004 26.8241 97.9025 27.1426 97.7166L38.2014 91.2698L24 86.333Z" fill="white" fill-opacity="0.1"/>
<path d="M44.9524 83.6703L27.1426 73.2868C26.838 73.1073 26.4932 73.0091 26.1405 73.0015C25.7879 72.9938 25.4392 73.0771 25.1273 73.2433L38.2015 91.2689L44.9524 87.3334C45.2709 87.1479 45.5354 86.8809 45.7193 86.5594C45.9032 86.2379 46 85.8732 46 85.5019C46 85.1306 45.9032 84.7659 45.7193 84.4443C45.5354 84.1228 45.2709 83.8559 44.9524 83.6703Z" fill="#2173C4"/>
<path d="M54.473 107.014L71.0284 95.0717V53.3438L54.473 65.2759V107.014Z" fill="white"/>
<path d="M12.745 65.2759L29.2906 53.3438H71.0284L54.473 65.2759H12.745Z" fill="white"/>
<path d="M54.473 108.794L71.0284 95.0717V53.3438L54.473 65.2759V108.794Z" fill="white"/>
<path opacity="0.3" d="M12.745 65.2759L29.2906 53.3438H71.0284L54.473 65.2759H12.745Z" fill="white"/>
<path opacity="0.2" d="M54.473 108.794L71.0284 95.0717V53.3438L54.473 65.2759V108.794Z" fill="black"/>
<path d="M76.8619 96.665C76.9996 96.665 77.1177 97.7668 77.1177 99.1243C76.9111 99.5374 77.0587 99.2423 77.0193 99.3308H77.0095L76.98 99.3603L76.9308 99.3997L76.8324 99.4784L76.6357 99.6259C76.5176 99.7145 76.3898 99.7932 76.2619 99.8915C76.016 100.059 75.7995 100.206 75.6028 100.324C75.2192 100.56 74.9634 100.669 74.9241 100.619C74.8847 100.56 75.0618 100.344 75.3864 100.039C75.5536 99.8817 75.7503 99.7145 75.9766 99.5276C76.1045 99.4194 76.2225 99.3308 76.3307 99.2325L76.5275 99.0849L76.6258 99.0062L76.675 98.9669L76.7045 98.9472H76.7144V98.9374C76.6652 99.0259 76.8127 98.7308 76.616 99.1439C76.616 97.7864 76.734 96.6847 76.8718 96.6847L76.8619 96.665Z" fill="white"/>
<path d="M76.8619 86.1191C76.9996 86.1191 77.1176 87.2996 77.1176 88.7554C77.1176 90.2113 76.9996 91.3917 76.8619 91.3917C76.7242 91.3917 76.6061 90.2113 76.6061 88.7554C76.6061 87.2996 76.7242 86.1191 76.8619 86.1191Z" fill="white"/>
<path d="M76.8619 75.5732C76.9996 75.5732 77.1176 76.7537 77.1176 78.2095C77.1176 79.6654 76.9996 80.8458 76.8619 80.8458C76.7242 80.8458 76.6061 79.6654 76.6061 78.2095C76.6061 76.7537 76.7242 75.5732 76.8619 75.5732Z" fill="white"/>
<path d="M76.8619 65.0303C76.9996 65.0303 77.1176 66.2107 77.1176 67.6665C77.1176 69.1224 76.9996 70.3028 76.8619 70.3028C76.7242 70.3028 76.6061 69.1224 76.6061 67.6665C76.6061 66.2107 76.7242 65.0303 76.8619 65.0303Z" fill="white"/>
<path d="M76.8619 54.4844C76.9996 54.4844 77.1176 55.6648 77.1176 57.1206C77.1176 58.5765 76.9996 59.7569 76.8619 59.7569C76.7242 59.7569 76.6061 58.5765 76.6061 57.1206C76.6061 55.6648 76.7242 54.4844 76.8619 54.4844Z" fill="white"/>
<path d="M74.4027 46.7519C74.4027 46.6141 75.5044 46.4961 76.8619 46.4961C77.3734 47.0076 76.9996 46.6338 77.1177 46.7519V46.7814V46.8109V46.8699V46.9978V47.2437C77.1177 47.3913 77.1079 47.5388 77.098 47.706C77.0882 48.0011 77.0685 48.2667 77.039 48.4831C76.9898 48.9258 76.9308 49.2012 76.8619 49.2012C76.7931 49.2012 76.7242 48.9258 76.6849 48.4831C76.6652 48.2569 76.6455 47.9913 76.6258 47.706C76.6258 47.5388 76.616 47.3913 76.6062 47.2437V46.9978V46.8699V46.8109V46.7814V46.7617V46.742C76.7242 46.8601 76.3504 46.4863 76.8619 46.9978C75.5044 46.9978 74.4027 46.8797 74.4027 46.742V46.7519Z" fill="white"/>
<path d="M64.9691 46.7519C64.9691 46.6141 66.0217 46.4961 67.33 46.4961C68.6383 46.4961 69.6908 46.6141 69.6908 46.7519C69.6908 46.8896 68.6383 47.0076 67.33 47.0076C66.0217 47.0076 64.9691 46.8896 64.9691 46.7519Z" fill="white"/>
<path d="M55.5356 46.7519C55.5356 46.6141 56.5881 46.4961 57.8964 46.4961C59.2047 46.4961 60.2573 46.6141 60.2573 46.7519C60.2573 46.8896 59.2047 47.0076 57.8964 47.0076C56.5881 47.0076 55.5356 46.8896 55.5356 46.7519Z" fill="white"/>
<path d="M46.1021 46.7519C46.1021 46.6141 47.1546 46.4961 48.4629 46.4961C49.7712 46.4961 50.8237 46.6141 50.8237 46.7519C50.8237 46.8896 49.7712 47.0076 48.4629 47.0076C47.1546 47.0076 46.1021 46.8896 46.1021 46.7519Z" fill="white"/>
<path d="M36.6685 46.7519C36.6685 46.6141 37.7211 46.4961 39.0294 46.4961C40.3377 46.4961 41.3902 46.6141 41.3902 46.7519C41.3902 46.8896 40.3377 47.0076 39.0294 47.0076C37.7211 47.0076 36.6685 46.8896 36.6685 46.7519Z" fill="white"/>
<path d="M27.4317 47.3027C27.3825 47.2437 27.5891 46.9781 27.9629 46.6043L28.0022 46.565H28.0907C28.4941 46.5158 29.0154 46.4961 29.5859 46.4961C30.8844 46.4961 31.9468 46.6141 31.9468 46.7519C31.9468 46.8896 30.8943 47.0076 29.5859 47.0076C29.0154 47.0076 28.4842 46.9879 28.0907 46.9486L28.2186 46.8994C27.7858 47.2044 27.4809 47.3617 27.4317 47.2929V47.3027Z" fill="white"/>
<path d="M20.1721 53.3229C20.0836 53.2146 20.8214 52.4474 21.8247 51.6211C22.8281 50.7849 23.7134 50.2046 23.8019 50.3128C23.8905 50.421 23.1527 51.1883 22.1493 52.0145C21.146 52.8507 20.2607 53.4311 20.1721 53.3229Z" fill="white"/>
<path d="M12.9125 59.3541C12.8239 59.2459 13.5617 58.4786 14.5651 57.6523C15.5684 56.8162 16.4537 56.2358 16.5423 56.344C16.6308 56.4522 15.893 57.2195 14.8897 58.0458C13.8863 58.8819 13.001 59.4623 12.9125 59.3541Z" fill="white"/>
<path d="M7.3645 66.397C7.22679 66.397 7.11859 65.2953 7.12843 63.9378C7.31533 63.5443 7.17761 63.8295 7.21696 63.741H7.22679L7.24647 63.7115L7.29565 63.6722L7.39403 63.5935L7.58092 63.4361C7.69896 63.3475 7.81701 63.2492 7.94489 63.1508C8.18097 62.9737 8.39738 62.8164 8.58428 62.6983C8.95808 62.4524 9.21385 62.3245 9.25319 62.3737C9.30238 62.4327 9.1253 62.6491 8.81052 62.9737C8.65313 63.1311 8.46625 63.318 8.24 63.5148C8.11212 63.623 8.00391 63.7213 7.8957 63.8197L7.7088 63.9771L7.61043 64.0558L7.56125 64.0951L7.54158 64.1148H7.53174V64.1345C7.57109 64.046 7.44321 64.3312 7.62027 63.9378C7.61044 65.2953 7.48256 66.397 7.34484 66.397H7.3645Z" fill="white"/>
<path d="M7.26625 76.1545C7.12854 76.1545 7.02033 75.0626 7.03016 73.7149C7.04 72.3673 7.16788 71.2754 7.30559 71.2754C7.44331 71.2754 7.55152 72.3673 7.54168 73.7149C7.53185 75.0626 7.40397 76.1545 7.26625 76.1545Z" fill="white"/>
<path d="M7.16773 85.9025C7.03001 85.9025 6.92181 84.8106 6.93165 83.463C6.94149 82.1153 7.06937 81.0234 7.20708 81.0234C7.3448 81.0234 7.45299 82.1153 7.44316 83.463C7.43332 84.8106 7.30544 85.9025 7.16773 85.9025Z" fill="white"/>
<path d="M7.07918 95.6603C6.94146 95.6603 6.83325 94.5684 6.84309 93.2208C6.85293 91.8731 6.9808 90.7812 7.11852 90.7812C7.25624 90.7812 7.36445 91.8731 7.35461 93.2208C7.34477 94.5684 7.2169 95.6603 7.07918 95.6603Z" fill="white"/>
<path d="M6.98084 105.419C6.84312 105.419 6.73493 104.327 6.74476 102.98C6.7546 101.632 6.88248 100.54 7.02019 100.54C7.15791 100.54 7.26612 101.632 7.25628 102.98C7.24645 104.327 7.11855 105.419 6.98084 105.419Z" fill="white"/>
<path d="M9.37128 112.797C9.37128 112.935 8.26955 113.033 6.91207 113.014C6.41039 112.492 6.77436 112.866 6.65631 112.758V112.738V112.719V112.689V112.63V112.502V112.256C6.66615 112.109 6.67599 111.961 6.68582 111.794C6.7055 111.499 6.72517 111.233 6.74484 111.017C6.79403 110.574 6.86289 110.299 6.93174 110.299C7.0006 110.299 7.05962 110.574 7.1088 111.017C7.12847 111.243 7.14815 111.509 7.15799 111.804C7.15799 111.971 7.15798 112.119 7.16782 112.266V112.512V112.64V112.699V112.729V112.748C7.05961 112.64 7.42358 113.014 6.91207 112.502C8.26955 112.522 9.37128 112.66 9.37128 112.797Z" fill="white"/>
<path d="M18.6867 112.955C18.6867 113.093 17.644 113.191 16.3554 113.171C15.0668 113.152 14.024 113.014 14.0339 112.876C14.0339 112.738 15.0766 112.64 16.3652 112.66C17.6538 112.679 18.6966 112.817 18.6867 112.955Z" fill="white"/>
<path d="M28.0022 113.101C28.0022 113.239 26.9595 113.337 25.6709 113.318C24.3822 113.298 23.3395 113.16 23.3494 113.023C23.3494 112.885 24.3921 112.787 25.6807 112.806C26.9693 112.826 28.0121 112.964 28.0022 113.101Z" fill="white"/>
<path d="M37.3276 113.26C37.3276 113.397 36.2849 113.496 34.9963 113.476C33.7076 113.456 32.6649 113.319 32.6748 113.181C32.6748 113.043 33.7175 112.945 35.0061 112.964C36.2947 112.984 37.3374 113.122 37.3276 113.26Z" fill="white"/>
<path d="M46.6431 113.418C46.6431 113.555 45.6004 113.654 44.3117 113.634C43.0231 113.614 41.9804 113.477 41.9902 113.339C41.9902 113.201 43.0329 113.103 44.3216 113.123C45.6102 113.142 46.6529 113.28 46.6431 113.418Z" fill="white"/>
<path d="M55.9586 113.564C55.9586 113.702 54.9159 113.8 53.6272 113.781C52.3386 113.761 51.2959 113.623 51.3057 113.486C51.3057 113.348 52.3484 113.249 53.6371 113.269C54.9257 113.289 55.9684 113.427 55.9586 113.564Z" fill="white"/>
<path d="M63.7493 109.048C63.8379 109.157 63.0706 109.885 62.0476 110.662C61.0245 111.439 60.1195 111.98 60.031 111.862C59.9425 111.754 60.7097 111.026 61.7328 110.248C62.7558 109.471 63.6608 108.93 63.7493 109.048Z" fill="white"/>
<path d="M71.186 103.423C71.2745 103.532 70.5072 104.26 69.4842 105.037C68.4612 105.814 67.5562 106.355 67.4676 106.237C67.3791 106.129 68.1464 105.401 69.1694 104.623C70.1925 103.846 71.0974 103.305 71.186 103.423Z" fill="white"/>
<path d="M59.6163 115.022C59.5123 115.117 59.0616 114.783 58.6028 114.275C58.152 113.772 57.8727 113.282 57.9768 113.187C58.0808 113.092 58.5315 113.426 58.9903 113.935C59.4411 114.438 59.7204 114.927 59.6163 115.022Z" fill="white"/>
<path d="M66.4459 122.674C66.3419 122.769 65.485 121.988 64.5468 120.932C63.6086 119.876 62.9232 118.94 63.0352 118.85C63.1472 118.761 63.9961 119.536 64.9343 120.592C65.8725 121.648 66.5579 122.584 66.4459 122.674Z" fill="white"/>
<path d="M73.2811 130.319C73.1771 130.414 72.3202 129.633 71.382 128.577C70.4437 127.521 69.7583 126.585 69.8703 126.496C69.9743 126.401 70.8312 127.181 71.7694 128.238C72.7077 129.294 73.3931 130.23 73.2811 130.319Z" fill="white"/>
<path d="M80.1083 137.956C80.0043 138.051 79.1474 137.27 78.2092 136.214C77.271 135.158 76.5856 134.222 76.6976 134.133C76.8016 134.038 77.6585 134.818 78.5967 135.874C79.5349 136.93 80.2204 137.867 80.1083 137.956Z" fill="white"/>
<path d="M32.0108 59.2303C32.1386 59.1712 32.719 60.0762 33.3191 61.2567C33.9191 62.4371 34.2929 63.4503 34.165 63.5093C34.0372 63.5683 33.4568 62.6633 32.8567 61.4829C32.2567 60.3025 31.8829 59.2893 32.0108 59.2303Z" fill="white"/>
<path d="M23.3936 42.1053C23.5215 42.0462 24.1019 42.9512 24.7019 44.1317C25.302 45.3121 25.6758 46.3253 25.5479 46.3843C25.42 46.4433 24.8397 45.5383 24.2396 44.3579C23.6396 43.1775 23.2658 42.1643 23.3936 42.1053Z" fill="white"/>
<path d="M19.0752 33.5467C19.2031 33.4877 19.7835 34.3926 20.3835 35.5731C20.9836 36.7535 21.3574 37.7667 21.2295 37.8257C21.1016 37.8847 20.5212 36.9797 19.9212 35.7993C19.3211 34.6189 18.9473 33.6057 19.0752 33.5467Z" fill="white"/>
<path d="M79.3142 99.5454C79.2822 99.6797 78.7161 99.6666 78.0559 99.4985C77.394 99.3401 76.8856 99.0972 76.9192 98.9532C76.9512 98.8189 77.5172 98.832 78.1775 99.0001C78.8393 99.1585 79.3477 99.4013 79.3142 99.5454Z" fill="white"/>
<path d="M89.059 101.94C89.027 102.074 87.9059 101.921 86.5644 101.591C85.2229 101.261 84.1594 100.877 84.1914 100.743C84.2234 100.609 85.3445 100.763 86.686 101.092C88.0275 101.422 89.091 101.806 89.059 101.94Z" fill="white"/>
<path d="M98.7942 104.335C98.7622 104.469 97.6411 104.315 96.2996 103.985C94.9581 103.656 93.8946 103.272 93.9266 103.138C93.9586 103.003 95.0797 103.157 96.4212 103.487C97.7627 103.817 98.8262 104.2 98.7942 104.335Z" fill="white"/>
<path d="M108.531 106.719C108.499 106.854 107.378 106.7 106.036 106.37C104.695 106.041 103.631 105.657 103.663 105.522C103.695 105.388 104.817 105.542 106.158 105.872C107.499 106.201 108.563 106.585 108.531 106.719Z" fill="white"/>
<path d="M118.276 109.115C118.244 109.249 117.123 109.095 115.781 108.766C114.44 108.436 113.376 108.052 113.408 107.918C113.44 107.784 114.561 107.938 115.903 108.267C117.244 108.597 118.308 108.981 118.276 109.115Z" fill="white"/>
<path d="M5.47743 29.225C5.72853 29.0748 6.01811 28.9952 6.31355 28.9952C6.60898 28.9952 6.89856 29.0748 7.14966 29.225C7.29044 29.3073 7.43548 29.3855 7.57625 29.4596C7.71703 29.5337 7.8706 29.6078 8.00284 29.6778C8.27094 29.7953 8.50012 29.9821 8.66501 30.2175C8.8299 30.4529 8.92406 30.7278 8.93708 31.0116L9.00107 33L15.7071 32.7983L15.6431 30.7976C15.6382 30.5133 15.7155 30.2334 15.8662 29.9891C16.0168 29.7448 16.235 29.5458 16.4963 29.4144C16.7897 29.2632 17.0745 29.0969 17.3495 28.9162C17.5918 28.75 17.877 28.6516 18.1736 28.632C18.4702 28.6124 18.7667 28.6723 19.0302 28.8051L20.839 29.7437L24 24.0462L22.1913 23.1076C21.9273 22.9717 21.7077 22.7677 21.5571 22.5184C21.4064 22.269 21.3306 21.9841 21.3381 21.6955C21.3452 21.381 21.3353 21.0663 21.3082 20.7528C21.2783 20.4702 21.3303 20.1851 21.4584 19.9293C21.5864 19.6734 21.7855 19.4569 22.0334 19.3037L23.7952 18.2499L20.2588 12.7458L18.5226 13.7956C18.2758 13.9428 17.9915 14.0208 17.7014 14.0208C17.4113 14.0208 17.1269 13.9428 16.8802 13.7956C16.7352 13.7091 16.5816 13.6268 16.428 13.5445L15.963 13.3181C15.6987 13.2002 15.4734 13.0139 15.3123 12.7799C15.1511 12.5459 15.0604 12.2733 15.0501 11.9925L14.9904 10L8.28013 10.2017L8.34838 12.186C8.35805 12.4661 8.28701 12.7433 8.14316 12.9868C7.99932 13.2302 7.78831 13.4304 7.5336 13.5651C7.22092 13.7305 6.91761 13.9119 6.62495 14.1085C6.3875 14.269 6.10821 14.3622 5.8187 14.3775C5.52919 14.3928 5.24103 14.3295 4.98685 14.1949L3.17384 13.2604L0 18.9703L1.81728 19.9089C2.08219 20.0447 2.30248 20.2492 2.45325 20.4995C2.60401 20.7497 2.67925 21.0357 2.67046 21.325C2.66329 21.6396 2.67326 21.9542 2.70032 22.2678C2.72975 22.5508 2.67713 22.8362 2.54832 23.092C2.41952 23.3479 2.2196 23.5642 1.97085 23.7168L0.213295 24.7666L3.72841 30.2624L5.47743 29.225ZM6.85958 19.6331C7.26399 18.5948 7.9954 17.7049 8.951 17.0884C9.9066 16.472 11.0384 16.1601 12.1872 16.1965C13.336 16.2329 14.4441 16.6158 15.3557 17.2913C16.2674 17.9669 16.9368 18.9012 17.2697 19.9628C17.6027 21.0245 17.5826 22.1602 17.2121 23.2102C16.8417 24.2603 16.1396 25.1719 15.2045 25.8169C14.2694 26.462 13.1484 26.8081 11.9989 26.8065C10.8495 26.8049 9.72948 26.4557 8.7963 25.8081C7.81521 25.1272 7.09386 24.1534 6.74379 23.0373C6.39371 21.9211 6.43441 20.7247 6.85958 19.6331Z" fill="#64AEF7"/>
<path d="M105.642 95L101 111.827L106.687 115.884L119.486 119L124.556 100.005L105.642 95Z" fill="#64AEF6"/>
<path d="M103.47 111.073L101 111.844C101.504 112.752 102.192 113.545 103.018 114.173C104.128 114.978 105.38 115.564 106.708 115.901C106.708 115.901 103.955 114.294 103.47 111.073Z" fill="#4395E4"/>
<path d="M120.863 105.455C120.863 105.483 117.634 104.647 113.654 103.61C109.674 102.572 106.469 101.688 106.477 101.656C106.485 101.624 109.706 102.463 113.686 103.497C117.666 104.53 120.871 105.422 120.863 105.455Z" fill="white"/>
<path d="M120.113 108.029C120.113 108.062 116.883 107.222 112.907 106.189C108.931 105.155 105.722 104.263 105.731 104.235C105.739 104.207 108.96 105.042 112.936 106.076C116.912 107.109 120.121 107.997 120.113 108.029Z" fill="white"/>
<path d="M119.588 110.352C119.588 110.384 116.359 109.544 112.379 108.511C108.399 107.478 105.194 106.598 105.218 106.553C105.242 106.509 108.447 107.361 112.427 108.398C116.407 109.435 119.596 110.319 119.588 110.352Z" fill="white"/>
<path d="M118.986 112.561C118.986 112.589 115.757 111.754 111.781 110.716C107.805 109.679 104.596 108.795 104.604 108.763C104.612 108.73 107.834 109.57 111.81 110.603C115.786 111.637 118.995 112.529 118.986 112.561Z" fill="white"/>
<path d="M80.5 144.472L87.9675 148.979L85.9859 140.484L92.5834 134.769L83.8954 134.032L80.5 126.021L77.1046 134.032L68.4167 134.769L75.0142 140.484L73.0325 148.979L80.5 144.472Z" fill="#64AEF6"/>
</g>
<defs>
<linearGradient id="paint0_linear_12725_294313" x1="99" y1="8" x2="89" y2="23" gradientUnits="userSpaceOnUse">
<stop stop-color="#2274C4"/>
<stop offset="1" stop-color="#17C25B"/>
</linearGradient>
<clipPath id="clip0_12725_294313">
<rect width="133" height="152" fill="white"/>
</clipPath>
</defs>
</svg>
