<svg width="283" height="256" viewBox="0 0 283 256" fill="none" xmlns="http://www.w3.org/2000/svg">
<mask id="mask0_13493_8408" style="mask-type:alpha" maskUnits="userSpaceOnUse" x="0" y="0" width="280" height="256">
<rect width="280" height="256" fill="#D9D9D9"/>
</mask>
<g mask="url(#mask0_13493_8408)">
<path d="M74.1709 242.907C56.0409 230.523 38.9834 216.8 30.0221 199.616L49.4688 179.477L74.1709 242.907Z" fill="url(#paint0_linear_13493_8408)"/>
<path d="M72.9276 242.24C71.234 240.789 54.9368 226.504 47.7658 207.462C40.1317 187.217 42.2857 164.555 43.0917 156.028L43.117 155.761L109.881 126.245C109.068 134.85 106.922 157.546 114.591 177.862C121.598 196.457 137.239 210.522 139.725 212.682L72.9276 242.24Z" fill="white"/>
<path opacity="0.7" d="M109.541 126.721C108.694 135.688 106.77 157.965 114.315 177.978C121.088 195.934 135.892 209.703 139.2 212.625L72.9764 241.906C70.6854 239.926 55.0279 225.91 48.043 207.39C40.4154 187.202 42.5535 164.583 43.3584 156.068L43.3684 155.962L109.519 126.713M110.194 125.799L42.8146 155.593C42.056 163.618 39.6769 186.919 47.4662 207.576C55.1385 227.853 72.8548 242.57 72.8548 242.57L140.252 212.772C140.252 212.772 122.512 198.053 114.869 177.779C107.074 157.12 109.459 133.82 110.218 125.795L110.194 125.799Z" fill="#CECECE"/>
<path d="M101.852 137.019L80.5475 146.427C80.122 146.605 79.7479 146.879 79.4569 147.225C79.1659 147.57 78.9667 147.978 78.8762 148.414C78.8385 149.124 79.526 149.386 80.4048 148.995L101.715 139.588C102.136 139.412 102.506 139.142 102.795 138.801C103.084 138.46 103.284 138.058 103.378 137.629C103.412 136.89 102.737 136.629 101.852 137.019Z" fill="#6B7280"/>
<path d="M101.565 144.67L80.2606 154.078C79.8406 154.249 79.4728 154.519 79.1913 154.862C78.9098 155.206 78.7237 155.611 78.6504 156.042C78.6498 156.733 79.3681 156.981 80.2468 156.59L101.557 147.183C101.975 147.012 102.341 146.743 102.619 146.4C102.898 146.057 103.08 145.652 103.149 145.223C103.156 144.527 102.448 144.297 101.565 144.67Z" fill="#6B7280"/>
<path d="M101.677 152.143L80.3667 161.55C79.4879 161.941 78.7937 162.809 78.8302 163.481C78.8667 164.153 79.6153 164.392 80.4999 164.002L101.81 154.595C102.689 154.204 103.371 153.341 103.329 152.668C103.286 151.995 102.556 151.752 101.677 152.143Z" fill="#6B7280"/>
<path d="M102.213 159.422L80.9026 168.829C80.0239 169.22 79.3604 170.073 79.4394 170.732C79.5184 171.391 80.2988 171.605 81.16 171.212L102.464 161.805C103.349 161.414 103.995 160.565 103.916 159.906C103.837 159.247 103.121 159.033 102.213 159.422Z" fill="#6B7280"/>
<path d="M103.204 166.502L81.894 175.909C81.0152 176.3 80.3889 177.134 80.5406 177.771C80.6923 178.409 81.4791 178.617 82.3578 178.226L103.668 168.819C104.553 168.429 105.161 167.598 105.022 166.957C104.882 166.315 104.083 166.111 103.204 166.502Z" fill="#6B7280"/>
<path d="M104.708 173.375L52.7732 196.338C51.8944 196.729 51.3053 197.544 51.4766 198.16C51.6479 198.777 52.5073 198.963 53.386 198.572L105.321 175.609C106.205 175.219 106.771 174.408 106.6 173.786C106.429 173.164 105.557 172.982 104.708 173.375Z" fill="#6B7280"/>
<path d="M106.703 179.983L54.7741 202.947C53.8895 203.337 53.3492 204.134 53.5757 204.727C53.8022 205.32 54.6812 205.485 55.5775 205.096L107.512 182.133C108.397 181.743 108.925 180.945 108.699 180.352C108.472 179.759 107.587 179.598 106.703 179.983Z" fill="#6B7280"/>
<path d="M109.369 186.343L57.4339 209.306C56.5494 209.697 56.0579 210.475 56.3396 211.045C56.6212 211.614 57.5677 211.752 58.4522 211.362L110.352 188.396C111.23 188.011 111.709 187.237 111.428 186.667C111.146 186.097 110.23 185.951 109.369 186.343Z" fill="#6B7280"/>
<path d="M112.602 192.425L60.6733 215.383C59.7887 215.773 59.3397 216.539 59.6712 217.079C60.0028 217.619 63.2521 224.714 65.7732 222.914L117.702 199.95C119.517 198.96 115.131 193.251 114.8 192.705C114.469 192.159 113.486 192.035 112.602 192.425Z" fill="url(#paint1_linear_13493_8408)"/>
<path d="M120.66 203.886L68.7431 226.845C67.8585 227.235 67.4598 227.965 67.9076 228.459C68.3554 228.953 69.3936 229.054 70.2723 228.663L122.207 205.7C123.092 205.31 123.454 204.588 123.031 204.085C122.607 203.582 121.555 203.502 120.66 203.886Z" fill="#6B7280"/>
<path d="M125.444 209.322L73.5098 232.28C72.6311 232.671 72.2866 233.389 72.7705 233.874C73.2543 234.36 74.3303 234.436 75.2148 234.046L127.109 211.079C127.987 210.689 128.319 209.986 127.847 209.496C127.375 209.005 126.305 208.93 125.444 209.322Z" fill="#6B7280"/>
<path opacity="0.8" d="M72.8245 149.861L48.3266 160.68C47.8218 168.76 47.6867 180.464 50.1069 192.474L74.6105 181.656C72.1845 169.646 72.3202 157.936 72.8245 149.861Z" fill="#BFDBFE"/>
<path opacity="0.6" d="M57.9889 159.726C58.0695 159.209 58.034 158.681 57.8847 158.178C57.7353 157.674 57.4757 157.207 57.1229 156.807L48.3258 160.692C48.1945 162.829 48.0862 165.22 48.048 167.803C49.1244 168.016 50.243 167.917 51.2597 167.518C54.6832 166.362 57.6926 162.861 57.9889 159.726Z" fill="white"/>
<path opacity="0.6" d="M73.3579 173.792C71.9813 171.79 69.3681 165.745 68.257 163.114C68.2134 163.01 68.1382 162.921 68.041 162.858C67.9438 162.796 67.8292 162.762 67.7119 162.762C67.5946 162.763 67.4801 162.796 67.3831 162.859C67.2861 162.922 67.2111 163.012 67.1679 163.116C65.2584 167.754 63.9467 172.596 63.2618 177.537C61.4565 175.895 59.9526 173.975 58.8128 171.857C58.7635 171.775 58.6905 171.707 58.6024 171.663C58.5144 171.619 58.4149 171.6 58.3158 171.608C58.2167 171.616 58.122 171.651 58.043 171.708C57.964 171.766 57.9038 171.844 57.8697 171.933C54.4389 181.077 54.8467 190.4 54.8467 190.4L74.6098 181.658C74.072 179.003 73.6674 176.371 73.3579 173.792Z" fill="white"/>
<path d="M221.217 204.113C239.395 191.696 256.498 177.936 265.483 160.706L245.984 140.514L221.217 204.113Z" fill="url(#paint2_linear_13493_8408)"/>
<path d="M222.464 203.444C224.162 201.99 240.503 187.667 247.693 168.575C255.347 148.276 253.187 125.554 252.379 117.005L252.354 116.736L185.413 87.1424C186.228 95.7698 188.379 118.527 180.691 138.896C173.665 157.54 157.982 171.643 155.49 173.808L222.464 203.444Z" fill="white"/>
<path opacity="0.7" d="M185.753 87.617C186.602 96.6079 188.531 118.944 180.967 139.01C174.176 157.013 159.333 170.819 156.015 173.748L222.414 203.107C224.712 201.122 240.411 187.068 247.414 168.5C255.062 148.258 252.918 125.579 252.111 117.041L252.101 116.935L185.775 87.6094M185.099 86.6926L252.656 116.566C253.417 124.612 255.802 147.974 247.992 168.687C240.3 189.017 222.536 203.773 222.536 203.773L154.961 173.896C154.961 173.896 172.747 159.138 180.411 138.81C188.227 118.097 185.835 94.735 185.075 86.689L185.099 86.6926Z" fill="#CECECE"/>
<path d="M192.107 127.506L244.256 151.113C245.137 151.505 245.765 152.342 245.613 152.981C245.461 153.62 244.672 153.828 243.791 153.437L191.642 129.829C190.755 129.438 190.145 128.606 190.285 127.962C190.425 127.319 191.226 127.114 192.107 127.506Z" fill="#6B7280"/>
<path d="M193.14 120.504L245.29 144.111C246.171 144.503 246.799 145.34 246.647 145.979C246.494 146.618 245.706 146.827 244.824 146.435L192.675 122.828C191.788 122.436 191.178 121.604 191.318 120.96C191.458 120.317 192.259 120.112 193.14 120.504Z" fill="#6B7280"/>
<path d="M193.66 113.055L245.81 136.662C246.691 137.054 247.319 137.891 247.167 138.53C247.014 139.168 246.226 139.377 245.345 138.985L193.195 115.378C192.308 114.987 191.698 114.154 191.838 113.511C191.978 112.868 192.779 112.663 193.66 113.055Z" fill="#6B7280"/>
<path d="M193.66 105.606L245.809 129.213C246.69 129.605 247.318 130.441 247.166 131.08C247.014 131.719 246.225 131.928 245.344 131.536L193.195 107.929C192.308 107.538 191.698 106.705 191.838 106.062C191.977 105.418 192.779 105.214 193.66 105.606Z" fill="#6B7280"/>
<path d="M194.18 98.1587L246.33 121.766C247.211 122.158 247.839 122.994 247.687 123.633C247.534 124.272 246.746 124.481 245.865 124.089L193.715 100.482C192.828 100.09 192.218 99.258 192.358 98.6146C192.498 97.9711 193.299 97.7668 194.18 98.1587Z" fill="#6B7280"/>
<path d="M190.599 134.395L242.671 157.419C243.552 157.811 244.143 158.628 243.971 159.246C243.799 159.864 242.938 160.051 242.057 159.659L189.984 136.635C189.097 136.244 188.531 135.43 188.702 134.807C188.873 134.183 189.747 134.001 190.599 134.395Z" fill="#6B7280"/>
<path d="M188.599 141.019L240.665 164.043C241.552 164.434 242.094 165.233 241.867 165.828C241.639 166.422 240.758 166.589 239.859 166.198L187.787 143.174C186.9 142.783 186.37 141.983 186.597 141.389C186.824 140.794 187.712 140.633 188.599 141.019Z" fill="#6B7280"/>
<path d="M185.926 147.399L237.998 170.422C238.885 170.814 239.378 171.594 239.096 172.165C238.813 172.736 237.864 172.875 236.977 172.483L184.94 149.457C184.06 149.07 183.579 148.294 183.862 147.723C184.144 147.152 185.063 147.005 185.926 147.399Z" fill="#6B7280"/>
<path d="M182.684 153.496L234.75 176.515C235.637 176.906 236.087 177.673 235.755 178.215C235.422 178.757 232.164 185.87 229.637 184.065L177.57 161.041C175.75 160.048 180.148 154.324 180.48 153.776C180.811 153.229 181.797 153.105 182.684 153.496Z" fill="url(#paint3_linear_13493_8408)"/>
<path d="M174.605 164.988L226.659 188.008C227.546 188.399 227.946 189.131 227.497 189.627C227.048 190.122 226.007 190.223 225.126 189.831L173.053 166.807C172.166 166.416 171.803 165.692 172.227 165.188C172.652 164.683 173.707 164.603 174.605 164.988Z" fill="#6B7280"/>
<path d="M169.808 170.44L221.88 193.458C222.761 193.85 223.106 194.57 222.621 195.057C222.136 195.544 221.057 195.621 220.17 195.229L168.139 172.202C167.258 171.81 166.926 171.106 167.398 170.614C167.871 170.122 168.944 170.047 169.808 170.44Z" fill="#6B7280"/>
<path d="M86.2804 115.349C70.5492 104.603 55.7486 92.6961 47.9731 77.7857L64.8467 60.3116L86.2804 115.349Z" fill="url(#paint4_linear_13493_8408)"/>
<path d="M85.2011 114.767C83.7316 113.509 69.5907 101.114 63.3686 84.5918C56.7446 67.0252 58.6136 47.3616 59.3129 39.9633L59.3349 39.731L117.265 14.1207C116.559 21.5868 114.698 41.2803 121.352 58.908C127.432 75.0423 141.003 87.2468 143.16 89.1206L85.2011 114.767Z" fill="white"/>
<path opacity="0.7" d="M116.972 14.5356C116.236 22.3163 114.567 41.6459 121.113 59.0106C126.99 74.5908 139.835 86.5376 142.706 89.0729L85.2447 114.48C83.2568 112.762 69.671 100.6 63.6104 84.5309C56.992 67.0136 58.8472 47.3879 59.5456 39.9992L59.5543 39.9072L116.952 14.5291M117.538 13.7356L59.0738 39.5877C58.4156 46.5506 56.3512 66.7681 63.1099 84.6926C69.767 102.286 85.1391 115.056 85.1391 115.056L143.619 89.2004C143.619 89.2004 128.226 76.4291 121.594 58.8374C114.831 40.9125 116.9 20.6954 117.558 13.7326L117.538 13.7356Z" fill="#CECECE"/>
<path d="M111.472 49.0522L66.3424 69.4815C65.58 69.8207 65.0365 70.5446 65.1681 71.0975C65.2997 71.6503 65.9824 71.8311 66.7449 71.492L111.875 51.0626C112.642 50.7239 113.17 50.0035 113.049 49.4467C112.928 48.8899 112.235 48.713 111.472 49.0522Z" fill="#6B7280"/>
<path d="M110.578 42.9936L65.4479 63.4229C64.6854 63.7621 64.142 64.486 64.2736 65.0389C64.4052 65.5917 65.0879 65.7725 65.8504 65.4334L110.98 45.004C111.748 44.6653 112.275 43.9449 112.154 43.3881C112.033 42.8313 111.34 42.6544 110.578 42.9936Z" fill="#6B7280"/>
<path d="M110.128 36.5483L64.9982 56.9776C64.2357 57.3168 63.6923 58.0407 63.8239 58.5936C63.9555 59.1464 64.6382 59.3272 65.4007 58.9881L110.53 38.5587C111.298 38.22 111.826 37.4996 111.705 36.9428C111.584 36.386 110.89 36.2091 110.128 36.5483Z" fill="#6B7280"/>
<path d="M110.128 30.101L64.9987 50.5304C64.2362 50.8695 63.6927 51.5934 63.8244 52.1463C63.956 52.6991 64.6387 52.88 65.4011 52.5408L110.531 32.1114C111.298 31.7727 111.826 31.0523 111.705 30.4955C111.584 29.9387 110.891 29.7618 110.128 30.101Z" fill="#6B7280"/>
<path d="M109.678 23.6557L64.548 44.0851C63.7855 44.4242 63.2421 45.1481 63.3737 45.701C63.5053 46.2538 64.188 46.4346 64.9505 46.0955L110.08 25.6661C110.848 25.3274 111.376 24.607 111.255 24.0502C111.133 23.4934 110.44 23.3165 109.678 23.6557Z" fill="#6B7280"/>
<path d="M112.778 55.0165L67.7149 74.941C66.9524 75.2802 66.4412 75.9873 66.5899 76.5221C66.7385 77.0569 67.4842 77.2187 68.2467 76.8796L113.31 56.955C114.077 56.6163 114.568 55.9123 114.419 55.3726C114.271 54.833 113.515 54.6751 112.778 55.0165Z" fill="#6B7280"/>
<path d="M114.509 60.7474L69.4506 80.6724C68.6831 81.0111 68.2143 81.7024 68.4108 82.2169C68.6073 82.7314 69.3701 82.8752 70.1477 82.5374L115.211 62.6128C115.978 62.2741 116.437 61.582 116.24 61.0675C116.044 60.5529 115.276 60.4135 114.509 60.7474Z" fill="#6B7280"/>
<path d="M116.821 66.2685L71.7577 86.1931C70.9901 86.5318 70.5637 87.2072 70.8081 87.7015C71.0525 88.1957 71.8737 88.3153 72.6412 87.9766L117.674 68.0495C118.436 67.7151 118.852 67.0437 118.607 66.5494C118.363 66.0552 117.568 65.9281 116.821 66.2685Z" fill="#6B7280"/>
<path d="M119.626 71.5464L74.5688 91.4666C73.8012 91.8053 73.4116 92.4693 73.6993 92.938C73.987 93.4067 76.8064 99.5628 78.9939 98.0007L124.052 78.0757C125.627 77.2162 121.821 72.2625 121.534 71.789C121.247 71.3154 120.394 71.2077 119.626 71.5464Z" fill="url(#paint5_linear_13493_8408)"/>
<path d="M126.618 81.4892L81.5708 101.41C80.8033 101.749 80.4574 102.383 80.8459 102.811C81.2344 103.24 82.1353 103.327 82.8977 102.988L127.961 83.0635C128.728 82.7248 129.043 82.0983 128.675 81.6617C128.308 81.2252 127.395 81.1562 126.618 81.4892Z" fill="#6B7280"/>
<path d="M130.77 86.208L85.7073 106.128C84.9449 106.467 84.6459 107.09 85.0657 107.511C85.4856 107.933 86.4192 107.999 87.1867 107.66L132.214 87.7325C132.977 87.3934 133.264 86.784 132.855 86.3585C132.446 85.933 131.517 85.8675 130.77 86.208Z" fill="#6B7280"/>
<path d="M158.419 204.088L162.244 238.855L190.845 221.687L158.419 204.088Z" fill="#5DB0E3"/>
<path d="M157.529 24.744L165.503 57.9062L190.908 31.6326L157.529 24.744Z" fill="#31BA77"/>
<g clip-path="url(#clip0_13493_8408)">
<path d="M142.167 90C143.866 90.2266 145.569 90.4026 147.257 90.6878C156.321 92.2235 164.191 96.1772 170.886 102.474C171.102 102.677 171.315 102.882 171.534 103.082C171.576 103.12 171.638 103.136 171.704 103.165C174.493 100.368 177.287 97.5689 180.078 94.7695C180.145 94.8095 180.212 94.8469 180.276 94.8869V121.827H153.541C156.889 118.487 160.283 115.101 163.669 111.723C155.967 103.522 142.597 99.1045 129.552 103.061C121.641 105.46 115.342 110.129 110.911 117.156C106.517 124.123 104.939 131.753 105.885 139.98H94.5838C94.1759 136.187 94.2265 132.435 94.7624 128.703C96.2634 118.22 100.788 109.267 108.578 102.061C115.795 95.3774 124.345 91.509 134.113 90.3359C135.022 90.2293 135.929 90.112 136.835 90C138.611 90 140.389 90 142.167 90Z" fill="url(#paint6_linear_13493_8408)"/>
<path d="M136.478 181C134.844 180.774 133.204 180.59 131.578 180.313C122.7 178.79 114.992 174.9 108.394 168.79C108.069 168.489 107.746 168.185 107.415 167.886C107.375 167.849 107.306 167.846 107.08 167.771C104.344 170.515 101.553 173.314 98.6948 176.18V149.186H125.542C122.172 152.554 118.775 155.95 115.384 159.341C123.132 167.577 136.579 171.802 149.534 167.937C163.992 163.623 175.394 148.917 173.144 131.025H184.613C184.613 133.563 184.728 136.078 184.589 138.576C184.291 144.028 183.032 149.266 180.785 154.263C177.431 161.717 172.24 167.651 165.703 172.437C159.161 177.228 151.786 179.923 143.732 180.79C143.148 180.854 142.567 180.928 141.986 180.998H136.475L136.478 181Z" fill="url(#paint7_linear_13493_8408)"/>
</g>
</g>
<defs>
<linearGradient id="paint0_linear_13493_8408" x1="69.2927" y1="234.425" x2="35.8121" y2="197.247" gradientUnits="userSpaceOnUse">
<stop stop-color="#595C61" stop-opacity="0.5"/>
<stop offset="1" stop-color="#5C6F94" stop-opacity="0"/>
</linearGradient>
<linearGradient id="paint1_linear_13493_8408" x1="61.4053" y1="197.152" x2="105.195" y2="230.515" gradientUnits="userSpaceOnUse">
<stop stop-color="#3A8DDE"/>
<stop offset="1" stop-color="#089450"/>
</linearGradient>
<linearGradient id="paint2_linear_13493_8408" x1="226.108" y1="195.608" x2="259.677" y2="158.331" gradientUnits="userSpaceOnUse">
<stop stop-color="#595C61" stop-opacity="0.5"/>
<stop offset="1" stop-color="#5C6F94" stop-opacity="0"/>
</linearGradient>
<linearGradient id="paint3_linear_13493_8408" x1="234.016" y1="158.235" x2="190.11" y2="191.687" gradientUnits="userSpaceOnUse">
<stop stop-color="#3A8DDE"/>
<stop offset="1" stop-color="#089450"/>
</linearGradient>
<linearGradient id="paint4_linear_13493_8408" x1="82.0475" y1="107.99" x2="52.997" y2="75.7303" gradientUnits="userSpaceOnUse">
<stop stop-color="#595C61" stop-opacity="0.5"/>
<stop offset="1" stop-color="#5C6F94" stop-opacity="0"/>
</linearGradient>
<linearGradient id="paint5_linear_13493_8408" x1="75.2039" y1="75.6475" x2="113.2" y2="104.597" gradientUnits="userSpaceOnUse">
<stop stop-color="#3A8DDE"/>
<stop offset="1" stop-color="#089450"/>
</linearGradient>
<linearGradient id="paint6_linear_13493_8408" x1="137.295" y1="90" x2="137.295" y2="139.98" gradientUnits="userSpaceOnUse">
<stop stop-color="#29BB63"/>
<stop offset="1" stop-color="#64AEF6"/>
</linearGradient>
<linearGradient id="paint7_linear_13493_8408" x1="141.676" y1="131.025" x2="141.676" y2="181" gradientUnits="userSpaceOnUse">
<stop stop-color="#29BB63"/>
<stop offset="1" stop-color="#64AEF6"/>
</linearGradient>
<clipPath id="clip0_13493_8408">
<rect width="91" height="91" fill="white" transform="translate(94 90)"/>
</clipPath>
</defs>
</svg>
