<svg width="32" height="32" viewBox="0 0 32 32" fill="none" xmlns="http://www.w3.org/2000/svg">
<g id="Group">
<g id="task-list-sync">
<path id="Shape" d="M19.6699 24.6016H14.7524V29.5191" stroke="#1D4ED8" stroke-width="1.5" stroke-linecap="round" stroke-linejoin="round"/>
<path id="Shape_2" d="M29.7239 25.5628C28.653 28.6924 25.6132 30.7122 22.3131 30.487C19.0131 30.2617 16.2759 27.8476 15.6401 24.6016" stroke="#1D4ED8" stroke-width="1.5" stroke-linecap="round" stroke-linejoin="round"/>
<path id="Shape_3" d="M25.5708 20.6675H30.4883V15.75" stroke="#1D4ED8" stroke-width="1.5" stroke-linecap="round" stroke-linejoin="round"/>
<path id="Shape_4" d="M15.5171 19.7069C16.588 16.5773 19.6278 14.5575 22.9278 14.7827C26.2279 15.0079 28.9651 17.422 29.6008 20.6681" stroke="#1D4ED8" stroke-width="1.5" stroke-linecap="round" stroke-linejoin="round"/>
<path id="Shape_5" d="M6.88428 13.7832H12.7853" stroke="#1D4ED8" stroke-width="1.5" stroke-linecap="round" stroke-linejoin="round"/>
<path id="Shape_6" d="M6.88428 18.7012H10.8183" stroke="#1D4ED8" stroke-width="1.5" stroke-linecap="round" stroke-linejoin="round"/>
<path id="Shape_7" d="M6.88428 23.6191H10.8183" stroke="#1D4ED8" stroke-width="1.5" stroke-linecap="round" stroke-linejoin="round"/>
<path id="Shape_8" d="M9.83491 30.5031H2.9504C1.86406 30.5031 0.983398 29.6224 0.983398 28.5361V7.88255C0.983398 6.79621 1.86406 5.91555 2.9504 5.91555H7.86791C7.86791 3.19969 10.0695 0.998047 12.7854 0.998047C15.5013 0.998047 17.7029 3.19969 17.7029 5.91555H22.6204C23.7068 5.91555 24.5874 6.79621 24.5874 7.88255V10.8331" stroke="#1D4ED8" stroke-width="1.5" stroke-linecap="round" stroke-linejoin="round"/>
<path id="Shape_9" d="M12.7852 4.93164C13.0568 4.93164 13.277 5.1518 13.277 5.42339C13.277 5.69498 13.0568 5.91514 12.7852 5.91514C12.5136 5.91514 12.2935 5.69498 12.2935 5.42339C12.2935 5.1518 12.5136 4.93164 12.7852 4.93164" stroke="#1D4ED8" stroke-width="1.5" stroke-linecap="round" stroke-linejoin="round"/>
</g>
</g>
</svg>
