<svg width="244" height="234" viewBox="0 0 244 234" fill="none" xmlns="http://www.w3.org/2000/svg">
<path d="M223.241 233.926L0.981445 148.611L190.821 0.333496L223.241 233.926Z" fill="#F3F4F6"/>
<path d="M85.1471 140.556C66.447 129.579 48.6634 117.15 38.4071 100.501L55.4042 78.3701L85.1471 140.556Z" fill="url(#paint0_linear_12602_288465)"/>
<path d="M83.8811 139.987C82.1074 138.664 65.009 125.597 56.3172 106.908C47.0665 87.0376 47.0779 63.8594 47.0779 55.1391V54.8654L109.061 19.083C109.061 27.8832 109.061 51.0955 118.352 71.0342C126.844 89.2847 143.286 102.185 145.893 104.159L83.8811 139.987Z" fill="white"/>
<path opacity="0.7" d="M108.776 19.5957C108.776 28.7666 108.953 51.5341 118.095 71.1762C126.302 88.7993 141.906 101.472 145.38 104.147L83.8983 139.644C81.4972 137.836 65.0433 124.987 56.5796 106.81C47.3403 86.9971 47.3403 63.8646 47.3403 55.1557V55.0473L108.753 19.59M109.324 18.6034L46.77 54.7222C46.77 62.9292 46.5989 86.7746 56.0378 107.05C65.3284 126.949 83.8413 140.328 83.8413 140.328L146.412 104.204C146.412 104.204 127.876 90.824 118.614 70.9252C109.17 50.6501 109.346 26.8047 109.346 18.5977L109.324 18.6034Z" fill="white"/>
<path d="M102.268 30.7174L82.4895 42.1239C82.0936 42.3418 81.7561 42.6522 81.5059 43.0285C81.2557 43.4048 81.1 43.8361 81.0522 44.2855C81.0808 45.0098 81.7709 45.2151 82.5864 44.7417L102.371 33.3352C102.762 33.1193 103.096 32.8131 103.345 32.4421C103.594 32.0711 103.751 31.646 103.803 31.2021C103.768 30.4493 103.09 30.244 102.268 30.7174Z" fill="#6B7280"/>
<path d="M102.691 38.5025L82.9117 49.909C82.5205 50.1194 82.1888 50.4253 81.9475 50.7982C81.7062 51.1711 81.5631 51.599 81.5315 52.042C81.5942 52.7435 82.3128 52.9318 83.1284 52.4584L102.913 41.0518C103.302 40.8423 103.632 40.537 103.87 40.1648C104.109 39.7926 104.248 39.3657 104.276 38.9245C104.219 38.2173 103.512 38.0462 102.691 38.5025Z" fill="#6B7280"/>
<path d="M103.483 46.0709L83.6986 57.4775C82.883 57.9509 82.2899 58.8919 82.3868 59.5706C82.4838 60.2493 83.2309 60.4261 84.0522 59.9527L103.837 48.5461C104.652 48.0728 105.234 47.1374 105.132 46.4587C105.029 45.7801 104.299 45.5976 103.483 46.0709Z" fill="#6B7280"/>
<path d="M104.67 53.4109L84.8849 64.8175C84.0693 65.2908 83.5047 66.2148 83.6416 66.8763C83.7784 67.5379 84.5541 67.6862 85.3525 67.2129L105.132 55.8063C105.953 55.3329 106.5 54.4147 106.363 53.7531C106.227 53.0915 105.514 52.9375 104.67 53.4109Z" fill="#6B7280"/>
<path d="M106.278 60.5057L86.4933 71.9123C85.6777 72.3856 85.1473 73.2867 85.3526 73.9198C85.558 74.5529 86.3393 74.6955 87.1549 74.2221L106.94 62.8155C107.761 62.3422 108.274 61.4467 108.08 60.808C107.886 60.1692 107.094 60.0323 106.278 60.5057Z" fill="#6B7280"/>
<path d="M108.365 67.3444L60.1499 95.1821C59.3343 95.6555 58.8381 96.5338 59.0605 97.144C59.283 97.7543 60.1327 97.8683 60.9483 97.395L109.164 69.5573C109.985 69.0839 110.458 68.2113 110.236 67.5953C110.014 66.9794 109.152 66.871 108.365 67.3444Z" fill="#6B7280"/>
<path d="M110.903 73.8742L62.6935 101.712C61.8722 102.185 61.4216 103.041 61.6954 103.622C61.9692 104.204 62.8361 104.295 63.6687 103.822L111.884 75.9844C112.706 75.511 113.145 74.6556 112.871 74.0738C112.597 73.4921 111.725 73.4065 110.903 73.8742Z" fill="#6B7280"/>
<path d="M114.069 80.0969L65.8533 107.935C65.032 108.408 64.6271 109.241 64.9522 109.794C65.2772 110.347 66.2069 110.404 67.0281 109.931L115.209 82.093C116.025 81.6253 116.419 80.7983 116.093 80.2451C115.768 79.6919 114.867 79.6235 114.069 80.0969Z" fill="#6B7280"/>
<path d="M117.759 85.9816L69.5489 113.814C68.7276 114.287 68.3626 115.103 68.7333 115.622C69.104 116.141 70.0793 116.192 70.9005 115.713L119.11 87.8751C119.932 87.4018 120.285 86.5976 119.915 86.0729C119.544 85.5482 118.58 85.5083 117.759 85.9816Z" fill="#6B7280"/>
<path d="M121.968 91.5771L73.7521 119.409C72.9366 119.882 72.6115 120.675 73.0221 121.171C73.4328 121.668 74.4422 121.69 75.2635 121.217L123.479 93.368C124.295 92.8946 124.62 92.1132 124.198 91.617C123.776 91.1209 122.789 91.0866 121.968 91.5771Z" fill="#6B7280"/>
<path d="M126.616 96.9036L78.4174 124.736C77.5962 125.209 77.2768 125.985 77.7558 126.447C78.2349 126.909 79.2501 126.92 80.0657 126.447L128.281 98.6089C129.102 98.1355 129.388 97.3713 128.931 96.8979C128.475 96.4245 127.449 96.436 126.616 96.9036Z" fill="#6B7280"/>
<path d="M131.749 101.997L83.5331 129.829C82.7176 130.302 82.4495 131.061 82.9628 131.511C83.4761 131.962 84.5255 131.945 85.3468 131.471L133.522 103.634C134.338 103.16 134.595 102.419 134.093 101.963C133.591 101.506 132.547 101.523 131.749 101.997Z" fill="#6B7280"/>
<path opacity="0.8" d="M75.3206 46.2817L52.5759 59.3993C52.8269 67.6405 53.7679 79.5261 57.2127 91.4973L79.9631 78.3798C76.5126 66.4086 75.5715 54.5173 75.3206 46.2817Z" fill="#BFDBFE"/>
<path opacity="0.6" d="M61.8495 57.5856C61.8801 57.0536 61.7974 56.5212 61.6066 56.0236C61.4159 55.5261 61.1215 55.0748 60.743 54.6997L52.5759 59.4106C52.6444 61.5893 52.7584 64.0246 52.9581 66.6481C54.0204 66.7703 55.095 66.5716 56.0435 66.0777C59.2545 64.6063 61.8495 60.7908 61.8495 57.5856Z" fill="white"/>
<path opacity="0.6" d="M78.0297 70.5092C76.5126 68.5986 73.4272 62.6957 72.1097 60.1235C72.0579 60.0219 71.9769 59.9381 71.877 59.883C71.777 59.8279 71.6629 59.804 71.5493 59.8144C71.4357 59.8248 71.3278 59.8691 71.2396 59.9415C71.1514 60.0139 71.087 60.1111 71.0546 60.2205C69.6293 65.0925 68.802 70.1198 68.5908 75.1916C66.6913 73.6837 65.0584 71.8676 63.7601 69.8191C63.7048 69.7397 63.6279 69.6778 63.5385 69.6407C63.4492 69.6036 63.351 69.5928 63.2557 69.6096C63.1604 69.6264 63.0719 69.67 63.0006 69.7354C62.9293 69.8009 62.8782 69.8853 62.8533 69.9788C60.3667 79.5546 61.6157 88.9764 61.6157 88.9764L79.9631 78.3797C79.1989 75.7334 78.5658 73.0985 78.0297 70.5092Z" fill="white"/>
<path d="M150.519 156.21V233.296L229.417 187.746V117.667L170.749 151.539L168.727 145.697L150.519 156.21Z" fill="#3A8DDE"/>
<path opacity="0.2" d="M150.519 156.21V233.296L229.417 187.746V117.667L170.749 151.539L168.727 145.697L150.519 156.21Z" fill="black"/>
<path d="M173.249 179C173.05 179 173.02 178.771 173.02 178.637V112.896C173.036 112.641 173.111 112.393 173.239 112.172C173.366 111.951 173.544 111.762 173.757 111.621L230.702 78.7511C230.78 78.7024 230.869 78.675 230.961 78.6714C231.16 78.6714 231.19 78.9005 231.19 79.035V144.776C231.175 145.031 231.1 145.28 230.972 145.502C230.844 145.724 230.667 145.914 230.453 146.055L173.508 178.926C173.429 178.972 173.34 178.998 173.249 179Z" fill="white"/>
<path d="M230.931 78.9004C230.935 78.9368 230.935 78.9735 230.931 79.0099V144.751C230.915 144.963 230.851 145.168 230.745 145.353C230.639 145.537 230.494 145.695 230.319 145.816L173.373 178.687L173.274 178.731C173.267 178.695 173.267 178.658 173.274 178.622V112.881C173.291 112.67 173.355 112.465 173.461 112.282C173.567 112.098 173.712 111.941 173.886 111.82L230.832 78.9502C230.863 78.9282 230.899 78.9129 230.936 78.9053M230.966 78.4073C230.83 78.4113 230.698 78.4508 230.583 78.5219L173.637 111.392C173.387 111.557 173.179 111.777 173.029 112.037C172.879 112.296 172.793 112.587 172.776 112.886V178.627C172.776 179.015 172.97 179.239 173.274 179.239C173.409 179.236 173.542 179.196 173.657 179.125L230.602 146.255C230.854 146.091 231.063 145.871 231.213 145.611C231.363 145.351 231.449 145.06 231.464 144.76V79.0199C231.464 78.6314 231.27 78.4023 230.966 78.4073Z" fill="#3A8DDE"/>
<path opacity="0.7" d="M230.931 78.9004C230.935 78.9368 230.935 78.9735 230.931 79.0099V144.751C230.915 144.963 230.851 145.168 230.745 145.353C230.639 145.537 230.494 145.695 230.319 145.816L173.373 178.687L173.274 178.731C173.267 178.695 173.267 178.658 173.274 178.622V112.881C173.291 112.67 173.355 112.465 173.461 112.282C173.567 112.098 173.712 111.941 173.886 111.82L230.832 78.9502C230.863 78.9282 230.899 78.9129 230.936 78.9053M230.966 78.4073C230.83 78.4113 230.698 78.4508 230.583 78.5219L173.637 111.392C173.387 111.557 173.179 111.777 173.029 112.037C172.879 112.296 172.793 112.587 172.776 112.886V178.627C172.776 179.015 172.97 179.239 173.274 179.239C173.409 179.236 173.542 179.196 173.657 179.125L230.602 146.255C230.854 146.091 231.063 145.871 231.213 145.611C231.363 145.351 231.449 145.06 231.464 144.76V79.0199C231.464 78.6314 231.27 78.4023 230.966 78.4073Z" fill="white"/>
<path d="M178.842 115.391L199.072 103.712V127.07L178.842 138.749V115.391Z" fill="#3A8DDE"/>
<path opacity="0.8" d="M178.842 115.391L199.072 103.712V127.07L178.842 138.749V115.391Z" fill="white"/>
<path d="M196.039 109.535V116.557L195.401 116.911V114.764C195.401 113.579 194.44 113.175 193.245 113.863L184.674 118.818C183.483 119.505 182.517 121.024 182.517 122.21V124.356L181.885 124.735V117.727L196.039 109.535Z" fill="white"/>
<path d="M192.144 127.414C191.108 128.012 190.267 127.384 190.267 126.005V114.764L187.662 116.179V127.509C187.662 128.883 186.82 130.497 185.784 131.08L183.902 132.165V132.913L194.017 127.071V126.329L192.144 127.414Z" fill="white"/>
<path d="M203.101 102.562C203.101 103.21 203.684 103.394 204.396 102.986L224.078 91.6057C224.427 91.4077 224.726 91.1316 224.951 90.799C225.175 90.4663 225.32 90.0861 225.373 89.6882C225.373 89.0458 224.79 88.8565 224.078 89.2699L204.411 100.625C204.056 100.823 203.752 101.101 203.525 101.437C203.297 101.774 203.152 102.159 203.101 102.562Z" fill="#6B7280"/>
<path d="M203.101 109.535C203.101 110.183 203.684 110.372 204.396 109.958L224.063 98.6032C224.412 98.4053 224.711 98.1292 224.936 97.7965C225.16 97.4638 225.305 97.0837 225.358 96.6858C225.358 96.0433 224.775 95.8541 224.063 96.2675L204.396 107.623C204.047 107.82 203.749 108.095 203.524 108.427C203.3 108.759 203.155 109.138 203.101 109.535Z" fill="#6B7280"/>
<path d="M203.101 116.557C203.101 117.204 203.684 117.394 204.396 116.98L224.063 105.625C224.412 105.428 224.71 105.152 224.935 104.82C225.159 104.489 225.304 104.11 225.358 103.713C225.358 103.065 224.775 102.876 224.063 103.289L204.396 114.644C204.047 114.842 203.749 115.117 203.524 115.449C203.3 115.781 203.155 116.16 203.101 116.557Z" fill="#6B7280"/>
<path d="M203.101 123.565C203.101 124.212 203.684 124.401 204.396 123.988L224.063 112.633C224.412 112.435 224.71 112.16 224.935 111.828C225.159 111.497 225.304 111.117 225.358 110.72C225.358 110.073 224.775 109.884 224.063 110.297L204.396 121.652C204.047 121.85 203.749 122.125 203.524 122.457C203.3 122.788 203.155 123.168 203.101 123.565Z" fill="#6B7280"/>
<path d="M178.842 144.591C178.842 145.239 179.42 145.428 180.137 145.015L224.078 119.615C224.427 119.418 224.726 119.143 224.951 118.811C225.175 118.479 225.32 118.1 225.373 117.703C225.373 117.055 224.79 116.871 224.078 117.279L180.137 142.679C179.787 142.875 179.488 143.151 179.264 143.483C179.039 143.814 178.895 144.194 178.842 144.591Z" fill="#6B7280"/>
<path d="M178.842 151.599C178.842 152.246 179.42 152.435 180.137 152.022L224.078 126.652C224.428 126.454 224.726 126.178 224.951 125.845C225.175 125.513 225.32 125.133 225.373 124.735C225.373 124.092 224.79 123.903 224.078 124.316L180.137 149.686C179.787 149.883 179.488 150.158 179.264 150.49C179.039 150.822 178.895 151.201 178.842 151.599Z" fill="#6B7280"/>
<path d="M178.842 158.611C178.842 159.253 179.42 159.443 180.137 159.029L224.078 133.659C224.428 133.461 224.726 133.185 224.951 132.853C225.175 132.52 225.32 132.14 225.373 131.742C225.373 131.099 224.79 130.91 224.078 131.324L180.137 156.693C179.787 156.891 179.487 157.166 179.263 157.499C179.038 157.832 178.894 158.213 178.842 158.611Z" fill="#6B7280"/>
<path d="M150.519 233.296L164.678 171.395L243.576 125.84L229.417 187.746L150.519 233.296Z" fill="#3A8DDE"/>
<path d="M169.822 176.241V222.155L188.03 211.642V165.733L169.822 176.241Z" fill="#3A8DDE"/>
<path d="M195.66 167.525L175.799 178.98C176.018 186.177 176.839 196.556 179.848 207.01L199.714 195.555C196.701 185.101 195.879 174.717 195.66 167.525Z" fill="#3A8DDE"/>
<path d="M183.897 177.397C183.923 176.932 183.851 176.468 183.685 176.033C183.518 175.599 183.261 175.205 182.93 174.877L175.799 178.991C175.858 180.893 175.958 183.02 176.132 185.311C177.06 185.417 177.998 185.244 178.827 184.813C181.631 183.528 183.897 180.196 183.897 177.397Z" fill="#3A8DDE"/>
<defs>
<linearGradient id="paint0_linear_12602_288465" x1="79.6438" y1="132.379" x2="42.2873" y2="99.2997" gradientUnits="userSpaceOnUse">
<stop stop-color="#E0E0E0"/>
<stop offset="1" stop-color="#E0E0E0" stop-opacity="0"/>
</linearGradient>
</defs>
</svg>
