<svg width="25" height="25" viewBox="0 0 25 25" fill="none" xmlns="http://www.w3.org/2000/svg">
<path d="M13.0001 23.6846V6.2716C13.0001 6.2716 10.5451 3.5446 2.26806 3.4346C2.13025 3.43324 1.99766 3.48728 1.90006 3.5846C1.80265 3.6831 1.74803 3.81606 1.74806 3.9546V20.3286C1.74576 20.609 1.96779 20.8399 2.24806 20.8486C10.5431 20.9556 13.0001 23.6846 13.0001 23.6846" stroke="white" stroke-width="1.5" stroke-linecap="round" stroke-linejoin="round"/>
<path d="M9.99999 12.7396C8.29824 12.1672 6.53084 11.8127 4.73999 11.6846" stroke="white" stroke-width="1.5" stroke-linecap="round" stroke-linejoin="round"/>
<path d="M9.99999 16.9348C8.29788 16.3646 6.53055 16.0118 4.73999 15.8848" stroke="white" stroke-width="1.5" stroke-linecap="round" stroke-linejoin="round"/>
<path d="M16 12.7396C17.7017 12.1672 19.4692 11.8127 21.26 11.6846" stroke="white" stroke-width="1.5" stroke-linecap="round" stroke-linejoin="round"/>
<path d="M16 16.9348C17.7021 16.3646 19.4694 16.0118 21.26 15.8848" stroke="white" stroke-width="1.5" stroke-linecap="round" stroke-linejoin="round"/>
<path d="M21.26 3.55458C22.02 3.48858 22.842 3.44658 23.732 3.43458C23.8691 3.43376 24.0009 3.48776 24.098 3.58458C24.1954 3.68308 24.25 3.81604 24.25 3.95458V20.3286C24.2523 20.609 24.0303 20.8399 23.75 20.8486C15.457 20.9556 13 23.6846 13 23.6846" stroke="white" stroke-width="1.5" stroke-linecap="round" stroke-linejoin="round"/>
<path d="M13 23.6851V6.27213C13 6.27213 14.143 5.00213 17.5 4.16113" stroke="white" stroke-width="1.5" stroke-linecap="round" stroke-linejoin="round"/>
<path fill-rule="evenodd" clip-rule="evenodd" d="M21.25 8.68496V2.08496C19.9861 2.18572 18.7322 2.38635 17.5 2.68496V8.68496L19.375 7.18496L21.25 8.68496Z" stroke="white" stroke-width="1.5" stroke-linecap="round" stroke-linejoin="round"/>
</svg>
