<svg fill="none" height="32" viewBox="0 0 30 32" width="30" xmlns="http://www.w3.org/2000/svg"><g style="fill-rule:evenodd;clip-rule:evenodd;stroke:#405568;stroke-width:1.5;stroke-linecap:round;stroke-linejoin:round"><path d="m20.3627 20.832c.4 5.1414 8.0186 1.6 7.416 3.3867-3.3667 9.9747-16.864 7.58-22.62137 1.5533-5.556458-5.6638-5.543401-14.7374.02934-20.38529 5.63733-5.63733 15.18933-6.046663 20.38403-.02933 10.176 11.78662-5.56 10.88662-5.208 15.47462z"/><path d="m8.58672 19.7721c1.1193 0 2.02668-.9074 2.02668-2.0267s-.90738-2.0266-2.02668-2.0266c-1.11929 0-2.02666.9073-2.02666 2.0266s.90737 2.0267 2.02666 2.0267z"/><path d="m13.5999 26.2184c1.1193 0 2.0267-.9074 2.0267-2.0267s-.9074-2.0267-2.0267-2.0267-2.0267.9074-2.0267 2.0267.9074 2.0267 2.0267 2.0267z"/><path d="m18.4481 9.90978c1.1193 0 2.0266-.90737 2.0266-2.02667s-.9073-2.02666-2.0266-2.02666-2.0267.90736-2.0267 2.02666.9074 2.02667 2.0267 2.02667z"/><path d="m9.85333 12.0592c1.11927 0 2.02667-.9074 2.02667-2.0267 0-1.11927-.9074-2.02664-2.02667-2.02664-1.1193 0-2.02667.90737-2.02667 2.02664 0 1.1193.90737 2.0267 2.02667 2.0267z"/></g></svg>