<svg width="32" height="32" viewBox="0 0 32 32" fill="none" xmlns="http://www.w3.org/2000/svg">
<g id="Group">
<g id="common-file-text-edit">
<path id="Shape" fill-rule="evenodd" clip-rule="evenodd" d="M30.1733 19.8271L20 30.0005L15 31.0005L16 26.0005L26.1733 15.8271C26.7021 15.2976 27.4197 15 28.168 15C28.9163 15 29.6339 15.2976 30.1627 15.8271L30.1733 15.8378C30.7029 16.3665 31.0005 17.0841 31.0005 17.8325C31.0005 18.5808 30.7029 19.2984 30.1733 19.8271V19.8271Z" stroke="#405568" stroke-width="1.5" stroke-linecap="round" stroke-linejoin="round"/>
<path id="Shape_2" d="M5 9H19" stroke="#405568" stroke-width="1.5" stroke-linecap="round" stroke-linejoin="round"/>
<path id="Shape_3" d="M5 15H19" stroke="#405568" stroke-width="1.5" stroke-linecap="round" stroke-linejoin="round"/>
<path id="Shape_4" d="M5 21H12" stroke="#405568" stroke-width="1.5" stroke-linecap="round" stroke-linejoin="round"/>
<path id="Shape_5" d="M10 27H3C1.89543 27 1 26.1046 1 25V3C1 1.89543 1.89543 1 3 1H17.172C17.7021 1.00011 18.2104 1.21064 18.5853 1.58533L22.4147 5.41467C22.7894 5.7896 22.9999 6.29794 23 6.828V11" stroke="#405568" stroke-width="1.5" stroke-linecap="round" stroke-linejoin="round"/>
</g>
</g>
</svg>
