<svg width="28" height="28" viewBox="0 0 28 28" fill="none" xmlns="http://www.w3.org/2000/svg">
<g id="Group">
<g id="help-wheel">
<path id="Oval" fill-rule="evenodd" clip-rule="evenodd" d="M14 19C16.7614 19 19 16.7614 19 14C19 11.2386 16.7614 9 14 9C11.2386 9 9 11.2386 9 14C9 16.7614 11.2386 19 14 19Z" stroke="#405568" stroke-width="1.5" stroke-linecap="round" stroke-linejoin="round"/>
<path id="Shape" d="M20.8253 25.0682L14.7053 18.9482" stroke="#405568" stroke-width="1.5" stroke-linecap="round" stroke-linejoin="round"/>
<path id="Shape_2" d="M18.948 14.708L25.068 20.8267" stroke="#405568" stroke-width="1.5" stroke-linecap="round" stroke-linejoin="round"/>
<path id="Shape_3" d="M2.93237 20.8261L9.05237 14.7061" stroke="#405568" stroke-width="1.5" stroke-linecap="round" stroke-linejoin="round"/>
<path id="Shape_4" d="M13.2948 18.9502L7.1748 25.0689" stroke="#405568" stroke-width="1.5" stroke-linecap="round" stroke-linejoin="round"/>
<path id="Shape_5" d="M7.1748 2.93262L13.2948 9.05128" stroke="#405568" stroke-width="1.5" stroke-linecap="round" stroke-linejoin="round"/>
<path id="Shape_6" d="M9.05189 13.2948L2.93188 7.1748" stroke="#405568" stroke-width="1.5" stroke-linecap="round" stroke-linejoin="round"/>
<path id="Shape_7" d="M25.068 7.1748L18.948 13.2948" stroke="#405568" stroke-width="1.5" stroke-linecap="round" stroke-linejoin="round"/>
<path id="Shape_8" d="M14.7053 9.05128L20.8253 2.93262" stroke="#405568" stroke-width="1.5" stroke-linecap="round" stroke-linejoin="round"/>
<path id="Oval_2" fill-rule="evenodd" clip-rule="evenodd" d="M14 27C21.1797 27 27 21.1797 27 14C27 6.8203 21.1797 1 14 1C6.8203 1 1 6.8203 1 14C1 21.1797 6.8203 27 14 27Z" stroke="#405568" stroke-width="1.5" stroke-linecap="round" stroke-linejoin="round"/>
</g>
</g>
</svg>
