<svg width="32" height="32" viewBox="0 0 32 32" fill="none" xmlns="http://www.w3.org/2000/svg">
<g id="Group">
<g id="content-paper-edit">
<path id="Shape" fill-rule="evenodd" clip-rule="evenodd" d="M29.838 19.4993L19.8365 29.5048L14.9189 30.4883L15.9024 25.5708L25.9092 15.5653C26.429 15.0446 27.1346 14.752 27.8703 14.752C28.6061 14.752 29.3117 15.0446 29.8314 15.5653L29.8432 15.5758C30.925 16.6608 30.9227 18.4172 29.838 19.4993Z" stroke="#1D4ED8" stroke-width="1.5" stroke-linecap="round" stroke-linejoin="round"/>
<path id="Shape_2" d="M10.9798 26.5544H3.11178C2.02543 26.5544 1.14478 25.6738 1.14478 24.5874V2.9504C1.14478 1.86406 2.02543 0.983398 3.11178 0.983398H22.7818C23.8681 0.983398 24.7488 1.86406 24.7488 2.9504V11.8019" stroke="#1D4ED8" stroke-width="1.5" stroke-linecap="round" stroke-linejoin="round"/>
<path id="Shape_3" d="M10.9797 6.88477H18.8477" stroke="#1D4ED8" stroke-width="1.5" stroke-linecap="round" stroke-linejoin="round"/>
<path id="Shape_4" d="M7.0459 12.7852H18.8479" stroke="#1D4ED8" stroke-width="1.5" stroke-linecap="round" stroke-linejoin="round"/>
<path id="Shape_5" d="M7.0459 18.6865H16.8809" stroke="#1D4ED8" stroke-width="1.5" stroke-linecap="round" stroke-linejoin="round"/>
</g>
</g>
</svg>
