<svg width="32" height="31" viewBox="0 0 32 31" fill="none" xmlns="http://www.w3.org/2000/svg">
<g id="Group">
<g id="responsive-design">
<path id="Shape" fill-rule="evenodd" clip-rule="evenodd" d="M21.4701 29.2695H13.6021L14.5856 23.6045H20.4866L21.4701 29.2695V29.2695Z" stroke="#1D4ED8" stroke-width="1.5" stroke-linecap="round" stroke-linejoin="round"/>
<path id="Shape_2" d="M10.6516 29.2695H24.4206" stroke="#1D4ED8" stroke-width="1.5" stroke-linecap="round" stroke-linejoin="round"/>
<path id="Shape_3" d="M14.5857 6.60938H28.3548C29.4411 6.60938 30.3218 7.45481 30.3218 8.4977V21.716C30.3218 22.7588 29.4411 23.6043 28.3548 23.6043H6.71773C5.63139 23.6043 4.75073 22.7588 4.75073 21.716V19.8276" stroke="#1D4ED8" stroke-width="1.5" stroke-linecap="round" stroke-linejoin="round"/>
<path id="Shape_4" d="M4.75073 19.8271H30.3218" stroke="#1D4ED8" stroke-width="1.5" stroke-linecap="round" stroke-linejoin="round"/>
<path id="Rectangle-path" fill-rule="evenodd" clip-rule="evenodd" d="M0.81665 2.44434C0.81665 1.61591 1.48822 0.944336 2.31665 0.944336H9.15166C9.98009 0.944336 10.6517 1.61591 10.6517 2.44434V14.5509C10.6517 15.3793 9.98009 16.0509 9.15166 16.0509H2.31665C1.48822 16.0509 0.81665 15.3793 0.81665 14.5509V2.44434Z" stroke="#1D4ED8" stroke-width="1.5" stroke-linecap="round" stroke-linejoin="round"/>
<path id="Shape_5" d="M0.81665 12.2744H10.6517" stroke="#1D4ED8" stroke-width="1.5" stroke-linecap="round" stroke-linejoin="round"/>
</g>
</g>
</svg>
