<svg width="33" height="25" viewBox="0 0 33 25" fill="none" xmlns="http://www.w3.org/2000/svg">
<g id="Group">
<g id="search-bar-1">
<path id="Oval" fill-rule="evenodd" clip-rule="evenodd" d="M21.1536 20.9321C24.9558 20.9321 28.0381 17.8498 28.0381 14.0476C28.0381 10.2454 24.9558 7.16309 21.1536 7.16309C17.3513 7.16309 14.269 10.2454 14.269 14.0476C14.269 17.8498 17.3513 20.9321 21.1536 20.9321Z" stroke="#1D4ED8" stroke-width="1.5" stroke-linecap="round" stroke-linejoin="round"/>
<path id="Shape" d="M30.9885 23.8824L26.0225 18.915" stroke="#1D4ED8" stroke-width="2.03355" stroke-linecap="round" stroke-linejoin="round"/>
<path id="Shape_2" d="M30.9884 8.14623C30.9888 6.32024 30.2636 4.56893 28.9724 3.27776C27.6812 1.98659 25.9299 1.26137 24.1039 1.26172H8.36791C4.5657 1.26172 1.4834 4.34402 1.4834 8.14623C1.4834 11.9484 4.5657 15.0307 8.36791 15.0307H10.3349" stroke="#1D4ED8" stroke-width="1.5" stroke-linecap="round" stroke-linejoin="round"/>
</g>
</g>
</svg>
