<svg width="32" height="32" viewBox="0 0 32 32" fill="none" xmlns="http://www.w3.org/2000/svg">
<g id="Group">
<g id="startup-launch">
<path id="Shape" d="M22.4535 6.88477H24.4205C25.5068 6.88477 26.3875 7.76542 26.3875 8.85177V18.6868C26.3875 19.7731 25.5068 20.6538 24.4205 20.6538H21.47" stroke="#1D4ED8" stroke-width="1.5" stroke-linecap="round" stroke-linejoin="round"/>
<path id="Shape_2" d="M9.66824 20.6538H6.71773C5.63139 20.6538 4.75073 19.7731 4.75073 18.6868V8.85177C4.75073 7.76542 5.63139 6.88477 6.71773 6.88477H8.68474" stroke="#1D4ED8" stroke-width="1.5" stroke-linecap="round" stroke-linejoin="round"/>
<path id="Shape_3" d="M24.1859 20.6533C25.6757 20.6534 27.0377 21.495 27.7042 22.8275L30.1118 27.6414C30.4168 28.2513 30.3842 28.9756 30.0257 29.5556C29.6672 30.1356 29.0339 30.4885 28.352 30.4883H2.7862C2.10433 30.4885 1.47099 30.1356 1.11246 29.5556C0.753933 28.9756 0.721362 28.2513 1.02639 27.6414L3.434 22.8275C4.10046 21.495 5.46245 20.6534 6.95231 20.6533" stroke="#1D4ED8" stroke-width="1.5" stroke-linecap="round" stroke-linejoin="round"/>
<path id="Shape_4" fill-rule="evenodd" clip-rule="evenodd" d="M18.5194 5.18754C18.5194 2.86516 15.5689 0.983398 15.5689 0.983398C15.5689 0.983398 12.6184 2.86516 12.6184 5.18754V14.9976H18.5194V5.18754Z" stroke="#1D4ED8" stroke-width="1.5" stroke-linecap="round" stroke-linejoin="round"/>
<path id="Shape_5" d="M12.6185 14.9976H9.0281C8.80804 15.0015 8.5964 14.913 8.44456 14.7537C8.30755 14.6078 8.2577 14.4004 8.31343 14.2082C9.0246 12.235 10.6173 10.7078 12.6185 10.0801" stroke="#1D4ED8" stroke-width="1.5" stroke-linecap="round" stroke-linejoin="round"/>
<path id="Shape_6" d="M18.5195 14.9976H22.11C22.3296 15.0011 22.5407 14.9127 22.6922 14.7537C22.8297 14.608 22.8796 14.4004 22.8233 14.2082C22.1105 12.2366 20.5191 10.7101 18.5195 10.0801" stroke="#1D4ED8" stroke-width="1.5" stroke-linecap="round" stroke-linejoin="round"/>
<path id="Shape_7" d="M13.6021 18.6865V21.637" stroke="#1D4ED8" stroke-width="1.5" stroke-linecap="round" stroke-linejoin="round"/>
<path id="Shape_8" d="M17.5364 18.6865V24.5875" stroke="#1D4ED8" stroke-width="1.5" stroke-linecap="round" stroke-linejoin="round"/>
</g>
</g>
</svg>
