<svg width="30" height="32" viewBox="0 0 30 32" fill="none" xmlns="http://www.w3.org/2000/svg">
<g id="Group">
<g id="color-palette-sample-1">
<path id="Oval" fill-rule="evenodd" clip-rule="evenodd" d="M6.10079 8.851C7.18714 8.851 8.06779 7.97034 8.06779 6.88399C8.06779 5.79765 7.18714 4.91699 6.10079 4.91699C5.01445 4.91699 4.13379 5.79765 4.13379 6.88399C4.13379 7.97034 5.01445 8.851 6.10079 8.851Z" stroke="#1D4ED8" stroke-width="1.5" stroke-linecap="round" stroke-linejoin="round"/>
<path id="Oval_2" fill-rule="evenodd" clip-rule="evenodd" d="M6.10079 16.7192C7.18714 16.7192 8.06779 15.8385 8.06779 14.7522C8.06779 13.6658 7.18714 12.7852 6.10079 12.7852C5.01445 12.7852 4.13379 13.6658 4.13379 14.7522C4.13379 15.8385 5.01445 16.7192 6.10079 16.7192Z" stroke="#1D4ED8" stroke-width="1.5" stroke-linecap="round" stroke-linejoin="round"/>
<path id="Oval_3" fill-rule="evenodd" clip-rule="evenodd" d="M6.10079 24.5873C7.18714 24.5873 8.06779 23.7067 8.06779 22.6203C8.06779 21.534 7.18714 20.6533 6.10079 20.6533C5.01445 20.6533 4.13379 21.534 4.13379 22.6203C4.13379 23.7067 5.01445 24.5873 6.10079 24.5873Z" stroke="#1D4ED8" stroke-width="1.5" stroke-linecap="round" stroke-linejoin="round"/>
<path id="Shape" fill-rule="evenodd" clip-rule="evenodd" d="M11.2308 25.3572C11.2308 28.1911 8.93343 30.4884 6.09952 30.4884C3.2656 30.4884 0.968262 28.1911 0.968262 25.3572V3.54968C0.968262 2.13236 2.11723 0.983398 3.53454 0.983398H8.6658C10.0826 0.984122 11.2308 2.13287 11.2308 3.54968V25.3572Z" stroke="#1D4ED8" stroke-width="1.5" stroke-linecap="round" stroke-linejoin="round"/>
<path id="Shape_2" d="M10.5002 27.9996L21.4486 9.03634C22.157 7.8091 21.7367 6.23993 20.5097 5.53114L16.0655 2.96617C15.6608 2.7319 15.1995 2.61308 14.7319 2.6226" stroke="#1D4ED8" stroke-width="1.5" stroke-linecap="round" stroke-linejoin="round"/>
<path id="Shape_3" d="M8.72998 29.7676L27.5529 18.8966C28.7791 18.1879 29.1994 16.6197 28.4918 15.3927L25.9255 10.9486C25.7581 10.6589 25.5353 10.4049 25.2698 10.2012" stroke="#1D4ED8" stroke-width="1.5" stroke-linecap="round" stroke-linejoin="round"/>
</g>
</g>
</svg>
