<svg width="180" height="185" viewBox="0 0 180 185" fill="none" xmlns="http://www.w3.org/2000/svg">
<g clip-path="url(#clip0_12647_289424)">
<g clip-path="url(#clip1_12647_289424)">
<path d="M148.337 152.752L143.098 171.745L149.517 176.324L163.964 179.841L169.686 158.401L148.337 152.752Z" fill="#64AEF6"/>
<path d="M145.886 170.894L143.098 171.764C143.668 172.788 144.443 173.683 145.376 174.392C146.628 175.3 148.041 175.962 149.54 176.342C149.54 176.342 146.433 174.529 145.886 170.894Z" fill="#4395E4"/>
<path d="M165.517 164.552C165.517 164.584 161.873 163.641 157.381 162.47C152.889 161.299 149.271 160.301 149.28 160.265C149.289 160.228 152.925 161.176 157.417 162.342C161.909 163.508 165.526 164.515 165.517 164.552Z" fill="white"/>
<path d="M164.67 167.458C164.67 167.494 161.025 166.547 156.538 165.381C152.05 164.214 148.428 163.207 148.438 163.176C148.447 163.144 152.082 164.087 156.57 165.253C161.057 166.419 164.679 167.422 164.67 167.458Z" fill="white"/>
<path d="M164.078 170.078C164.078 170.114 160.433 169.167 155.941 168C151.449 166.834 147.832 165.841 147.859 165.791C147.886 165.741 151.504 166.702 155.996 167.873C160.488 169.044 164.087 170.041 164.078 170.078Z" fill="white"/>
<path d="M163.399 172.574C163.399 172.606 159.754 171.663 155.267 170.492C150.779 169.321 147.157 168.324 147.166 168.287C147.176 168.251 150.811 169.198 155.299 170.365C159.786 171.531 163.408 172.538 163.399 172.574Z" fill="white"/>
<path d="M15.8702 31.001L9 55.903L17.4191 61.9076L36.3576 66.5181L43.8656 38.4042L15.8702 31.001Z" fill="#64AEF6"/>
<path d="M12.6583 54.7861L9.01367 55.9023C9.75088 57.2422 10.7576 58.4149 11.9704 59.3465C13.6152 60.5366 15.4701 61.4053 17.4374 61.9069C17.4374 61.9069 13.3736 59.5333 12.6583 54.7861Z" fill="#4395E4"/>
<path d="M38.3941 46.4685C38.3941 46.5186 33.606 45.2976 27.729 43.735C21.852 42.1724 17.0957 40.8876 17.1094 40.8421C17.1231 40.7965 21.893 42.0175 27.7746 43.5755C33.6561 45.1336 38.4033 46.4229 38.3941 46.4685Z" fill="white"/>
<path d="M37.287 50.2859C37.287 50.3314 32.4988 49.1105 26.6218 47.5524C20.7448 45.9943 15.9886 44.705 16.0022 44.6594C16.0159 44.6139 20.7858 45.8348 26.6674 47.3929C32.5489 48.951 37.2961 50.2358 37.287 50.2859Z" fill="white"/>
<path d="M36.5078 53.7165C36.5078 53.7666 31.7196 52.5457 25.8426 50.983C19.9656 49.4204 15.2094 48.1357 15.2231 48.0901C15.2367 48.0445 20.0067 49.2655 25.8882 50.8236C31.7698 52.3817 36.5169 53.671 36.5078 53.7165Z" fill="white"/>
<path d="M35.6196 56.987C35.6196 57.0326 30.8314 55.8162 24.9545 54.2536C19.0775 52.6909 14.3212 51.4062 14.3349 51.3606C14.3485 51.3151 19.1185 52.5315 25 54.0941C30.8816 55.6567 35.6333 56.9415 35.6196 56.987Z" fill="white"/>
<path d="M72.274 180.96C53.574 169.983 35.7903 157.553 25.5341 140.905L42.5312 118.774L72.274 180.96Z" fill="url(#paint0_linear_12647_289424)"/>
<path d="M71.0082 180.39C69.2345 179.067 52.1361 166.001 43.4443 147.311C34.1936 127.441 34.205 104.263 34.205 95.5424V95.2687L96.1882 59.4863C96.1882 68.2865 96.1882 91.4988 105.479 111.437C113.971 129.688 130.414 142.589 133.02 144.562L71.0082 180.39Z" fill="white"/>
<path opacity="0.7" d="M95.903 59.9991C95.903 69.1699 96.0798 91.9374 105.222 111.579C113.429 129.203 129.033 141.875 132.507 144.55L71.0253 180.047C68.6242 178.239 52.1702 165.39 43.7066 147.214C34.4673 127.4 34.4673 104.268 34.4673 95.559V95.4506L95.8801 59.9933M96.4505 59.0067L33.8969 95.1255C33.8969 103.333 33.7258 127.178 43.1648 147.453C52.4554 167.352 70.9682 180.732 70.9682 180.732L133.539 144.607C133.539 144.607 115.003 131.227 105.741 111.329C96.2965 91.0534 96.4733 67.208 96.4733 59.001L96.4505 59.0067Z" fill="white"/>
<path d="M89.3954 71.1207L69.6164 82.5272C69.2205 82.7452 68.8831 83.0555 68.6328 83.4318C68.3826 83.8082 68.227 84.2394 68.1792 84.6888C68.2077 85.4131 68.8978 85.6184 69.7134 85.145L89.4981 73.7385C89.8893 73.5226 90.2233 73.2164 90.4722 72.8454C90.7212 72.4744 90.878 72.0493 90.9296 71.6055C90.8954 70.8526 90.2167 70.6473 89.3954 71.1207Z" fill="#00953B"/>
<path d="M89.8175 78.9058L70.0385 90.3123C69.6473 90.5227 69.3157 90.8286 69.0744 91.2015C68.8331 91.5744 68.6899 92.0023 68.6583 92.4454C68.7211 93.1469 69.4397 93.3351 70.2552 92.8617L90.0399 81.4552C90.4292 81.2456 90.7586 80.9404 90.9971 80.5681C91.2356 80.1959 91.3753 79.769 91.403 79.3278C91.3459 78.6206 90.6387 78.4495 89.8175 78.9058Z" fill="#6B7280"/>
<path d="M90.6102 86.4742L70.8255 97.8808C70.01 98.3542 69.4168 99.2952 69.5138 99.9739C69.6108 100.653 70.3579 100.829 71.1791 100.356L90.9638 88.9495C91.7794 88.4761 92.3611 87.5408 92.2585 86.8621C92.1558 86.1834 91.4258 86.0009 90.6102 86.4742Z" fill="#6B7280"/>
<path d="M91.7966 93.8138L72.0119 105.22C71.1964 105.694 70.6318 106.618 70.7686 107.279C70.9055 107.941 71.6812 108.089 72.4796 107.616L92.2586 96.2091C93.0799 95.7358 93.6274 94.8175 93.4905 94.156C93.3536 93.4944 92.6407 93.3404 91.7966 93.8138Z" fill="#6B7280"/>
<path d="M93.4049 100.909L73.6202 112.316C72.8047 112.789 72.2743 113.69 72.4796 114.323C72.6849 114.956 73.4663 115.099 74.2818 114.625L94.0665 103.219C94.8878 102.745 95.4011 101.85 95.2071 101.211C95.0132 100.573 94.2205 100.436 93.4049 100.909Z" fill="#6B7280"/>
<path d="M95.4923 107.748L47.2768 135.586C46.4613 136.059 45.9651 136.938 46.1875 137.548C46.4099 138.158 47.2597 138.272 48.0753 137.799L96.2908 109.961C97.1121 109.488 97.5854 108.615 97.363 107.999C97.1406 107.383 96.2794 107.275 95.4923 107.748Z" fill="#6B7280"/>
<path d="M98.0303 114.278L49.8206 142.115C48.9993 142.589 48.5487 143.444 48.8225 144.026C49.0962 144.608 49.9631 144.699 50.7958 144.225L99.0113 116.388C99.8326 115.914 100.272 115.059 99.998 114.477C99.7242 113.895 98.8516 113.81 98.0303 114.278Z" fill="#6B7280"/>
<path d="M101.196 120.5L52.9802 148.337C52.1589 148.811 51.754 149.643 52.0791 150.197C52.4042 150.75 53.3338 150.807 54.1551 150.334L102.336 122.496C103.152 122.028 103.545 121.201 103.22 120.648C102.895 120.095 101.994 120.026 101.196 120.5Z" fill="#6B7280"/>
<path d="M104.885 126.385L56.6757 154.217C55.8544 154.69 55.4894 155.506 55.8601 156.025C56.2308 156.544 57.2061 156.595 58.0274 156.116L106.237 128.278C107.058 127.805 107.412 127.001 107.041 126.476C106.671 125.952 105.707 125.912 104.885 126.385Z" fill="#6B7280"/>
<path d="M109.095 131.98L60.8791 159.812C60.0635 160.286 59.7384 161.079 60.1491 161.575C60.5597 162.071 61.5692 162.094 62.3905 161.62L110.606 133.771C111.422 133.298 111.747 132.517 111.325 132.02C110.903 131.524 109.916 131.49 109.095 131.98Z" fill="#6B7280"/>
<path d="M113.743 137.307L65.5443 165.139C64.723 165.612 64.4036 166.388 64.8827 166.85C65.3617 167.312 66.3769 167.323 67.1925 166.85L115.408 139.012C116.229 138.539 116.514 137.775 116.058 137.301C115.602 136.828 114.575 136.839 113.743 137.307Z" fill="#6B7280"/>
<path d="M118.876 142.4L70.6601 170.232C69.8445 170.706 69.5765 171.464 70.0897 171.915C70.603 172.365 71.6525 172.348 72.4737 171.875L120.649 144.037C121.465 143.564 121.722 142.822 121.22 142.366C120.718 141.91 119.674 141.927 118.876 142.4Z" fill="#6B7280"/>
<path opacity="0.8" d="M62.4476 86.6846L39.7029 99.8021C39.9538 108.043 40.8949 119.929 44.3396 131.9L67.09 118.783C63.6395 106.811 62.6985 94.9201 62.4476 86.6846Z" fill="#BFDBFE"/>
<path opacity="0.6" d="M48.9764 97.9894C49.0071 97.4574 48.9243 96.925 48.7336 96.4274C48.5428 95.9299 48.2484 95.4786 47.87 95.1035L39.7029 99.8144C39.7713 101.993 39.8854 104.428 40.085 107.052C41.1474 107.174 42.222 106.975 43.1705 106.482C46.3814 105.01 48.9764 101.195 48.9764 97.9894Z" fill="white"/>
<path opacity="0.6" d="M65.1567 110.913C63.6396 109.002 60.5541 103.1 59.2367 100.527C59.1849 100.426 59.1038 100.342 59.0039 100.287C58.904 100.232 58.7899 100.208 58.6763 100.218C58.5626 100.229 58.4548 100.273 58.3666 100.345C58.2784 100.418 58.2139 100.515 58.1816 100.624C56.7563 105.496 55.9289 110.524 55.7178 115.595C53.8183 114.087 52.1854 112.271 50.8871 110.223C50.8317 110.144 50.7548 110.082 50.6655 110.045C50.5761 110.007 50.478 109.997 50.3827 110.013C50.2874 110.03 50.1989 110.074 50.1276 110.139C50.0563 110.205 50.0052 110.289 49.9803 110.383C47.4936 119.958 48.7426 129.38 48.7426 129.38L67.0901 118.784C66.3258 116.137 65.6928 113.502 65.1567 110.913Z" fill="white"/>
</g>
<path d="M116.055 77.0958C114.079 79.2045 111.707 80.9032 109.074 82.0951C106.442 83.287 103.6 83.9486 100.712 84.0421C97.8232 84.1357 94.9447 83.6593 92.2405 82.6403C89.5363 81.6213 87.0592 80.0796 84.9509 78.1031C81.7779 75.1281 79.5583 71.2791 78.5724 67.0428C77.5866 62.8064 77.8789 58.3729 79.4123 54.3026C80.9458 50.2324 83.6516 46.7081 87.1876 44.1754C90.7237 41.6426 94.9313 40.2151 99.2785 40.0732C103.626 39.9314 107.917 41.0816 111.611 43.3784C115.305 45.6752 118.234 49.0156 120.03 52.9772C121.826 56.9389 122.406 61.3439 121.699 65.6355C120.991 69.9271 119.027 73.9126 116.055 77.0882V77.0958ZM85.9583 77.0352C89.5306 80.3878 94.1832 82.3538 99.0772 82.5787C103.971 82.8036 108.785 81.2726 112.649 78.2618C116.514 75.2509 119.176 70.9584 120.155 66.1581C121.134 61.3578 120.366 56.3656 117.989 52.0816C115.612 47.7977 111.783 44.5039 107.192 42.7941C102.601 41.0843 97.5501 41.0711 92.9501 42.7567C88.3501 44.4424 84.5037 47.7161 82.1044 51.9875C79.7051 56.2589 78.9108 61.247 79.8647 66.0524C80.6895 70.2634 82.8219 74.1068 85.9583 77.0352Z" fill="#CDCDCD"/>
<path d="M116.597 76.0348C112.606 80.2932 107.088 82.7927 101.255 82.9838C95.4227 83.1748 89.7529 81.0417 85.4925 77.0535C82.3179 74.0787 80.0967 70.2293 79.1095 65.9922C78.1224 61.755 78.4138 57.3204 79.9467 53.2488C81.4797 49.1772 84.1855 45.6516 87.722 43.1176C91.2585 40.5837 95.467 39.1552 99.8152 39.0128C104.164 38.8704 108.456 40.0204 112.151 42.3175C115.846 44.6146 118.777 47.9556 120.573 51.9182C122.369 55.8807 122.95 60.2868 122.242 64.5795C121.534 68.8721 119.57 72.8586 116.597 76.0348ZM86.4999 75.978C90.0722 79.3306 94.7249 81.2966 99.6188 81.5215C104.513 81.7464 109.326 80.2154 113.191 77.2046C117.056 74.1937 119.718 69.9012 120.697 65.1009C121.676 60.3006 120.908 55.3084 118.531 51.0244C116.154 46.7405 112.325 43.4467 107.734 41.7369C103.143 40.0271 98.0918 40.0138 93.4917 41.6995C88.8917 43.3852 85.0453 46.6589 82.646 50.9303C80.2467 55.2017 79.4524 60.1898 80.4064 64.9952C81.2308 69.2063 83.3633 73.0497 86.4999 75.978Z" fill="white"/>
<path d="M141.024 103.814L141.724 103.136C142.349 102.534 142.001 101.152 141.345 100.485L116.759 75.0732L113.472 78.2545L138.02 103.628C138.835 104.435 140.221 104.613 141.024 103.814Z" fill="white"/>
</g>
<defs>
<linearGradient id="paint0_linear_12647_289424" x1="66.7707" y1="172.783" x2="29.4143" y2="139.704" gradientUnits="userSpaceOnUse">
<stop stop-color="#595C61"/>
<stop offset="1" stop-color="#5C6F94" stop-opacity="0"/>
</linearGradient>
<clipPath id="clip0_12647_289424">
<rect width="180" height="184" fill="white" transform="translate(0 0.695312)"/>
</clipPath>
<clipPath id="clip1_12647_289424">
<rect width="200" height="163.098" fill="white" transform="translate(-20 22.001)"/>
</clipPath>
</defs>
</svg>
