<svg width="180" height="223" viewBox="0 0 180 223" fill="none" xmlns="http://www.w3.org/2000/svg">
<g clip-path="url(#clip0_12639_288533)">
<path d="M63.5795 115.312C63.5795 114.499 63.6901 112.334 63.6901 111.41C63.6901 107.456 62.2788 105.667 58.5975 105.556C56.8675 105.452 55.8398 104.425 55.8398 102.955C55.8398 101.485 56.8675 100.464 58.5975 100.353C62.2788 100.19 63.6901 98.4604 63.6901 94.4474C63.6901 93.5303 63.5795 91.3645 63.5795 90.545C63.5795 85.2897 65.8039 81.9336 74.194 80.0929C75.8785 79.7092 77.1728 80.7433 77.1728 82.3108C77.1891 82.7937 77.0509 83.2691 76.7784 83.668C76.5058 84.0669 76.1131 84.3684 75.6574 84.5287C70.4087 86.1547 69.6477 87.8328 69.6477 91.5206C69.6477 92.6002 69.7583 94.3889 69.7583 95.5271C69.7583 99.7482 67.6965 101.81 64.1259 102.948C67.7551 104.138 69.7583 106.142 69.7583 110.369C69.7583 111.501 69.6477 113.29 69.6477 114.376C69.6477 118.057 70.4087 119.735 75.6574 121.361C76.1131 121.522 76.5058 121.823 76.7784 122.222C77.0509 122.621 77.1891 123.096 77.1728 123.579C77.1728 125.153 75.872 126.181 74.194 125.804C65.8039 123.982 63.5795 120.62 63.5795 115.312Z" fill="#EBEBEB"/>
<path d="M95.3187 90.5645C95.3187 91.3775 95.2082 93.5434 95.2082 94.467C95.2082 98.48 96.6716 100.21 100.359 100.373C102.037 100.483 103.065 101.511 103.065 102.974C103.065 104.438 102.037 105.465 100.359 105.576C96.6716 105.686 95.2082 107.475 95.2082 111.43C95.2082 112.347 95.3187 114.512 95.3187 115.332C95.3187 120.639 93.1009 124.002 84.7043 125.843C83.0263 126.22 81.7255 125.192 81.7255 123.618C81.7084 123.128 81.8525 122.646 82.1356 122.245C82.4186 121.845 82.8252 121.548 83.2929 121.4C88.4961 119.774 89.2506 118.096 89.2506 114.415C89.2506 113.329 89.1465 111.54 89.1465 110.408C89.1465 106.181 91.2017 104.125 94.7789 102.987C91.1497 101.797 89.1465 99.7873 89.1465 95.5661C89.1465 94.4279 89.2506 92.6393 89.2506 91.5596C89.2506 87.8718 88.4961 86.1938 83.2929 84.5678C82.8252 84.4202 82.4186 84.1234 82.1356 83.7229C81.8525 83.3223 81.7084 82.8401 81.7255 82.3499C81.7255 80.7824 83.0263 79.7483 84.7043 80.132C93.1009 81.9531 95.3187 85.3092 95.3187 90.5645Z" fill="#EBEBEB"/>
<path d="M120.268 57.375C120.651 57.1376 121.093 57.0119 121.543 57.0119C121.994 57.0119 122.435 57.1376 122.818 57.375C123.032 57.505 123.254 57.6286 123.468 57.7457C123.683 57.8628 123.917 57.9798 124.119 58.0904C124.527 58.276 124.877 58.5711 125.128 58.9431C125.38 59.315 125.523 59.7492 125.543 60.1977L125.641 63.3392L135.865 63.0205L135.767 59.8595C135.76 59.4104 135.878 58.9681 136.107 58.5821C136.337 58.1962 136.67 57.8818 137.068 57.6741C137.515 57.4353 137.95 57.1726 138.369 56.8872C138.738 56.6245 139.173 56.4691 139.625 56.4381C140.078 56.4071 140.53 56.5017 140.931 56.7115L143.689 58.1945L148.508 49.1928L145.751 47.7099C145.348 47.4953 145.014 47.173 144.784 46.779C144.554 46.385 144.439 45.9349 144.45 45.479C144.461 44.9821 144.446 44.4849 144.404 43.9896C144.359 43.543 144.438 43.0926 144.633 42.6884C144.829 42.2842 145.132 41.9421 145.51 41.7002L148.196 40.0351L142.805 31.3392L140.157 32.9977C139.781 33.2304 139.348 33.3536 138.905 33.3536C138.463 33.3536 138.03 33.2304 137.653 32.9977C137.432 32.8611 137.198 32.7311 136.964 32.601L136.255 32.2433C135.852 32.057 135.509 31.7627 135.263 31.393C135.017 31.0233 134.879 30.5926 134.863 30.1489L134.772 27.001L124.541 27.3197L124.645 30.4546C124.66 30.8972 124.552 31.3352 124.333 31.7198C124.113 32.1045 123.792 32.4208 123.403 32.6335C122.927 32.8949 122.464 33.1814 122.018 33.492C121.656 33.7457 121.23 33.893 120.789 33.9171C120.347 33.9412 119.908 33.8413 119.52 33.6286L116.756 32.1522L111.917 41.1733L114.688 42.6563C115.092 42.8708 115.428 43.194 115.658 43.5894C115.887 43.9847 116.002 44.4365 115.989 44.8937C115.978 45.3906 115.993 45.8878 116.034 46.3831C116.079 46.8303 115.999 47.2811 115.802 47.6854C115.606 48.0896 115.301 48.4314 114.922 48.6725L112.242 50.3311L117.602 59.014L120.268 57.375ZM122.376 42.2205C122.992 40.58 124.107 39.1741 125.564 38.2002C127.021 37.2263 128.747 36.7334 130.498 36.7909C132.25 36.8484 133.939 37.4534 135.329 38.5207C136.719 39.5881 137.74 41.0641 138.247 42.7415C138.755 44.4188 138.724 46.2131 138.159 47.8721C137.595 49.5311 136.524 50.9714 135.099 51.9905C133.673 53.0096 131.964 53.5564 130.211 53.5539C128.459 53.5514 126.751 52.9998 125.328 51.9766C123.833 50.9008 122.733 49.3623 122.199 47.5988C121.665 45.8354 121.727 43.9452 122.376 42.2205Z" fill="#64AEF7"/>
<path d="M66.5124 178.419L62.9287 172.207L61.0295 173.307C60.7553 173.464 60.4428 173.541 60.1269 173.531C59.8111 173.521 59.5043 173.423 59.2409 173.248C58.9407 173.052 58.6302 172.872 58.3109 172.708C58.0294 172.567 57.7924 172.351 57.626 172.083C57.4596 171.816 57.3702 171.508 57.3678 171.193V169.001H50.2134V171.193C50.211 171.508 50.1216 171.816 49.9552 172.083C49.7888 172.351 49.5518 172.567 49.2704 172.708C48.951 172.872 48.6406 173.052 48.3403 173.248C48.0769 173.423 47.7702 173.521 47.4543 173.531C47.1385 173.541 46.826 173.464 46.5517 173.307L44.6526 172.207L41.0689 178.419L42.9811 179.518C43.2525 179.679 43.474 179.911 43.621 180.19C43.7679 180.47 43.8346 180.784 43.8135 181.099C43.8135 181.274 43.8135 181.45 43.8135 181.625C43.8135 181.801 43.8135 181.977 43.8135 182.152C43.8348 182.465 43.7688 182.778 43.623 183.056C43.4772 183.334 43.2573 183.566 42.9876 183.726L41.0364 184.832L44.62 191.043L46.5257 189.944C46.8005 189.788 47.1134 189.711 47.4292 189.723C47.7451 189.734 48.0515 189.833 48.3143 190.009C48.6125 190.203 48.9207 190.381 49.2379 190.542C49.5193 190.684 49.7563 190.9 49.9227 191.167C50.0891 191.435 50.1785 191.743 50.1809 192.058V194.25H57.3353V192.058C57.3377 191.743 57.4271 191.435 57.5935 191.167C57.7599 190.9 57.9969 190.684 58.2783 190.542C58.5954 190.381 58.9038 190.203 59.2019 190.009C59.4647 189.833 59.7711 189.734 60.087 189.723C60.4028 189.711 60.7157 189.788 60.9905 189.944L62.8962 191.043L66.4798 184.832L64.5677 183.733C64.298 183.572 64.078 183.34 63.9322 183.062C63.7864 182.785 63.7204 182.472 63.7417 182.159C63.7417 181.983 63.7417 181.807 63.7417 181.625C63.7417 181.443 63.7417 181.274 63.7417 181.099C63.7206 180.784 63.7873 180.47 63.9342 180.19C64.0812 179.911 64.3028 179.679 64.5742 179.518L66.5124 178.419ZM59.6572 181.625C59.6572 182.783 59.3139 183.915 58.6707 184.877C58.0275 185.84 57.1133 186.59 56.0437 187.033C54.9741 187.476 53.7971 187.592 52.6616 187.367C51.5262 187.141 50.4832 186.583 49.6645 185.765C48.8459 184.946 48.2884 183.903 48.0625 182.767C47.8367 181.632 47.9526 180.455 48.3956 179.385C48.8387 178.316 49.5889 177.401 50.5515 176.758C51.5142 176.115 52.6459 175.772 53.8036 175.772C55.3561 175.772 56.845 176.388 57.9427 177.486C59.0405 178.584 59.6572 180.073 59.6572 181.625Z" fill="#64AEF7"/>
<path d="M149 75.001H19V157.018H149V75.001Z" fill="white"/>
<path d="M149 75.001H19V82.2269H149V75.001Z" fill="url(#paint0_linear_12639_288533)"/>
<path d="M25.7785 78.6667C25.7785 79.0263 25.6718 79.3778 25.4721 79.6768C25.2723 79.9758 24.9883 80.2088 24.6561 80.3464C24.3239 80.484 23.9584 80.52 23.6057 80.4499C23.253 80.3797 22.9291 80.2066 22.6748 79.9523C22.4206 79.698 22.2474 79.3741 22.1773 79.0214C22.1071 78.6687 22.1431 78.3032 22.2807 77.971C22.4183 77.6388 22.6514 77.3548 22.9503 77.155C23.2493 76.9553 23.6008 76.8486 23.9604 76.8486C24.4426 76.8486 24.905 77.0402 25.246 77.3811C25.5869 77.7221 25.7785 78.1845 25.7785 78.6667Z" fill="#737680"/>
<path d="M31.3837 80.4848C32.3878 80.4848 33.2018 79.6708 33.2018 78.6667C33.2018 77.6626 32.3878 76.8486 31.3837 76.8486C30.3796 76.8486 29.5657 77.6626 29.5657 78.6667C29.5657 79.6708 30.3796 80.4848 31.3837 80.4848Z" fill="#EBEBEB"/>
<path d="M40.6309 78.6667C40.632 79.0277 40.526 79.3809 40.3263 79.6816C40.1266 79.9823 39.8422 80.217 39.509 80.3559C39.1759 80.4949 38.8089 80.5318 38.4548 80.4621C38.1006 80.3924 37.7751 80.2191 37.5194 79.9643C37.2638 79.7094 37.0895 79.3845 37.0186 79.0305C36.9478 78.6765 36.9836 78.3095 37.1214 77.9759C37.2593 77.6423 37.4931 77.3571 37.7931 77.1564C38.0932 76.9558 38.446 76.8486 38.807 76.8486C39.2897 76.8486 39.7528 77.04 40.0946 77.3808C40.4365 77.7216 40.6293 78.184 40.6309 78.6667Z" fill="white"/>
<path d="M30.719 96.8467H26.5337V100.195H30.719V96.8467Z" fill="#EBEBEB"/>
<path d="M88.477 96.8467H34.0674V100.195H88.477V96.8467Z" fill="#EBEBEB"/>
<path d="M142.049 96.8467H126.145V100.195H142.049V96.8467Z" fill="#EBEBEB"/>
<path d="M98.5218 96.8467H91.8252V100.195H98.5218V96.8467Z" fill="#1CB775"/>
<path d="M111.915 137.026H104.381V140.375H111.915V137.026Z" fill="#EBEBEB"/>
<path d="M123.634 96.8467H101.033V100.195H123.634V96.8467Z" fill="#6B7280"/>
<path d="M34.9043 104.38H30.719V107.728H34.9043V104.38Z" fill="#EBEBEB"/>
<path d="M69.2243 104.38H38.2527V107.728H69.2243V104.38Z" fill="#6B7280"/>
<path d="M102.707 137.026H90.988V140.375H102.707V137.026Z" fill="#6B7280"/>
<path d="M63.3648 128.655H34.0674V132.004H63.3648V128.655Z" fill="#6B7280"/>
<path d="M59.1794 112.751H38.2527V116.099H59.1794V112.751Z" fill="#1CB775"/>
<path d="M117.774 121.122H96.8477V124.47H117.774V121.122Z" fill="#6B7280"/>
<path d="M101.033 112.751H61.6907V116.099H101.033V112.751Z" fill="#6B7280"/>
<path d="M87.6399 137.026H34.0674V140.375H87.6399V137.026Z" fill="#3B8EDF"/>
<path d="M130.33 104.38H99.3589V107.728H130.33V104.38Z" fill="#3B8EDF"/>
<path d="M98.5216 104.38H71.7354V107.728H98.5216V104.38Z" fill="#EBEBEB"/>
<path d="M114.426 112.751H105.218V116.099H114.426V112.751Z" fill="#EBEBEB"/>
<path d="M34.9043 112.751H30.719V116.099H34.9043V112.751Z" fill="#EBEBEB"/>
<path d="M30.719 121.122H26.5337V124.47H30.719V121.122Z" fill="#6B7280"/>
<path d="M59.1795 121.122H34.0674V124.47H59.1795V121.122Z" fill="#EBEBEB"/>
<path d="M62.5277 144.56H38.2527V147.908H62.5277V144.56Z" fill="#EBEBEB"/>
<path d="M96.0106 144.56H64.2019V147.908H96.0106V144.56Z" fill="#1CB775"/>
<path d="M98.5216 128.655H65.0388V132.004H98.5216V128.655Z" fill="#EBEBEB"/>
<path d="M126.982 128.655H100.196V132.004H126.982V128.655Z" fill="#1CB775"/>
<path d="M94.3363 121.122H60.8535V124.47H94.3363V121.122Z" fill="#EBEBEB"/>
<path d="M30.719 128.655H26.5337V132.004H30.719V128.655Z" fill="#EBEBEB"/>
<path d="M30.719 137.026H26.5337V140.375H30.719V137.026Z" fill="#EBEBEB"/>
<path d="M34.9043 144.56H30.719V147.908H34.9043V144.56Z" fill="#6B7280"/>
<path d="M118.611 144.56H98.5217V147.908H118.611V144.56Z" fill="#6B7280"/>
<path d="M29.1358 92.8805C29.1677 92.9113 29.1932 92.9483 29.2105 92.9892C29.2279 93.0302 29.2369 93.0742 29.2369 93.1186C29.2369 93.1631 29.2279 93.2071 29.2105 93.248C29.1932 93.2889 29.1677 93.3259 29.1358 93.3568C29.0734 93.4175 28.9905 93.4528 28.9034 93.4555C28.8583 93.4559 28.8135 93.4474 28.7716 93.4305C28.7297 93.4135 28.6916 93.3885 28.6595 93.3568L27.1783 91.8465C27.1759 91.8311 27.1759 91.8155 27.1783 91.8001C27.1783 91.8001 27.1783 91.771 27.1783 91.7652V91.6723C27.1783 91.6723 27.1783 91.6723 27.1783 91.6432V91.6084C27.179 91.5948 27.179 91.5813 27.1783 91.5677C27.1772 91.5522 27.1772 91.5367 27.1783 91.5212C27.1756 91.5098 27.1756 91.4978 27.1783 91.4864L28.6711 89.9762C28.735 89.9144 28.8204 89.8799 28.9092 89.8799C28.9981 89.8799 29.0835 89.9144 29.1474 89.9762C29.1794 90.007 29.2048 90.044 29.2221 90.0849C29.2395 90.1259 29.2485 90.1699 29.2485 90.2143C29.2485 90.2588 29.2395 90.3027 29.2221 90.3437C29.2048 90.3846 29.1794 90.4216 29.1474 90.4525L27.8869 91.7187L29.1358 92.8805Z" fill="#1CB775"/>
<path d="M30.4836 93.0489L31.7847 89.9587C31.7998 89.9235 31.8218 89.8917 31.8493 89.865C31.8768 89.8384 31.9093 89.8175 31.9449 89.8034C31.9805 89.7894 32.0186 89.7825 32.0569 89.7833C32.0952 89.784 32.1329 89.7923 32.168 89.8077C32.203 89.8222 32.2347 89.8436 32.2613 89.8706C32.2879 89.8975 32.3088 89.9295 32.3229 89.9647C32.3369 89.9999 32.3438 90.0375 32.3432 90.0753C32.3425 90.1132 32.3343 90.1506 32.319 90.1852L31.0179 93.2812C30.9953 93.3332 30.9579 93.3773 30.9104 93.4083C30.8629 93.4393 30.8074 93.4557 30.7507 93.4555C30.7144 93.4637 30.6767 93.4637 30.6404 93.4555C30.6017 93.4412 30.5665 93.4188 30.5372 93.3898C30.5078 93.3609 30.485 93.326 30.4701 93.2876C30.4553 93.2491 30.4488 93.2079 30.4511 93.1668C30.4535 93.1256 30.4645 93.0854 30.4836 93.0489Z" fill="#1CB775"/>
<path d="M34.8804 91.805L34.8397 91.8398L33.3528 93.35C33.2889 93.4122 33.2037 93.4475 33.1146 93.4488C33.0703 93.4491 33.0264 93.4405 32.9855 93.4235C32.9446 93.4066 32.9075 93.3816 32.8765 93.35C32.8445 93.3192 32.8191 93.2822 32.8017 93.2412C32.7843 93.2003 32.7754 93.1563 32.7754 93.1119C32.7754 93.0674 32.7843 93.0234 32.8017 92.9825C32.8191 92.9416 32.8445 92.9046 32.8765 92.8737L34.1485 91.6133L32.8939 90.347C32.8619 90.3161 32.8365 90.2791 32.8191 90.2382C32.8018 90.1973 32.7928 90.1533 32.7928 90.1088C32.7928 90.0644 32.8018 90.0204 32.8191 89.9795C32.8365 89.9386 32.8619 89.9016 32.8939 89.8707C32.9578 89.8089 33.0432 89.7744 33.132 89.7744C33.2209 89.7744 33.3063 89.8089 33.3702 89.8707L34.8572 91.3809L34.8978 91.4158C34.8978 91.4158 34.8978 91.4158 34.9269 91.4622C34.9245 91.4776 34.9245 91.4933 34.9269 91.5087V91.5436C34.9269 91.5436 34.9269 91.5436 34.9269 91.5726V91.6714C34.9253 91.6868 34.9253 91.7024 34.9269 91.7178L34.8804 91.805Z" fill="#1CB775"/>
</g>
<defs>
<linearGradient id="paint0_linear_12639_288533" x1="34.4858" y1="72.5715" x2="133.679" y2="78.431" gradientUnits="userSpaceOnUse">
<stop stop-color="#17C25B"/>
<stop offset="1" stop-color="#43E89C"/>
</linearGradient>
<clipPath id="clip0_12639_288533">
<rect width="180" height="180" fill="white" transform="translate(0 14.001)"/>
</clipPath>
</defs>
</svg>
