<svg width="180" height="185" viewBox="0 0 180 185" fill="none" xmlns="http://www.w3.org/2000/svg">
<g clip-path="url(#clip0_12258_323968)">
<path d="M77.9993 136.678C77.9993 140.366 113.695 140.366 113.695 136.678C113.695 116.212 77.9993 116.212 77.9993 136.678Z" fill="#3B8EDF"/>
<path d="M95.8472 139.82C91.7285 139.856 87.6119 139.624 83.5232 139.127C78.2131 138.389 77.623 137.379 77.623 136.678C77.623 125.859 87.0854 120.932 95.8693 120.932C104.661 120.932 114.116 125.859 114.116 136.678C114.093 139.665 98.8931 139.82 95.8472 139.82ZM78.3975 136.678C78.3975 137.659 84.4672 139.023 95.8472 139.023C107.227 139.023 113.297 137.659 113.297 136.678C113.297 126.405 104.255 121.729 95.8472 121.729C87.4394 121.729 78.3975 126.405 78.3975 136.678Z" fill="white"/>
<path d="M116.638 90.347C119.396 96.1365 122.634 109.522 123.135 120.15C123.155 120.542 123.07 120.932 122.889 121.28C122.708 121.628 122.438 121.922 122.107 122.131C121.775 122.341 121.394 122.458 121.001 122.472C120.609 122.485 120.221 122.394 119.876 122.208C119.066 121.762 118.185 121.46 117.272 121.315C116.203 121.153 115.384 119.656 115.362 117.849L115.008 91.2984C114.993 89.875 116.092 89.2186 116.638 90.347Z" fill="white"/>
<path d="M120.916 122.872C120.491 122.871 120.073 122.764 119.699 122.562C118.927 122.138 118.089 121.849 117.221 121.706C115.952 121.515 115.008 119.907 115.008 117.879L114.661 91.3281C114.605 90.9345 114.68 90.5333 114.874 90.1866C115.069 89.8399 115.373 89.5671 115.738 89.4105C116.006 89.3706 116.279 89.4264 116.51 89.568C116.74 89.7097 116.914 89.9281 116.999 90.1849C119.736 95.9302 123.017 109.36 123.534 120.128C123.548 120.479 123.491 120.829 123.367 121.157C123.243 121.485 123.054 121.785 122.812 122.039C122.57 122.293 122.279 122.495 121.957 122.634C121.635 122.774 121.289 122.847 120.938 122.85L120.916 122.872ZM115.923 90.1554H115.886C115.679 90.207 115.377 90.6127 115.384 91.3281L115.738 117.879C115.738 119.479 116.476 120.829 117.331 120.976C118.286 121.126 119.208 121.444 120.053 121.913C120.34 122.066 120.663 122.14 120.989 122.127C121.315 122.115 121.631 122.016 121.906 121.841C122.181 121.667 122.405 121.422 122.555 121.133C122.705 120.844 122.775 120.52 122.759 120.195C122.25 109.486 119.005 96.2104 116.299 90.5316C116.254 90.4357 116.144 90.1554 115.923 90.1554Z" fill="#3B8EDF"/>
<path d="M116.999 125.898C116.999 130.814 75.0014 130.814 75.0014 125.898V71.2167C74.9268 59.5176 77.7836 47.9679 83.3383 37.5113C86.8272 31.0366 91.1956 25.585 96 25.585C100.804 25.585 105.173 31.0366 108.662 37.5113C114.216 47.9679 117.073 59.5176 116.999 71.2167V125.898Z" fill="white"/>
<path d="M96.0185 129.58C91.0157 129.627 86.0164 129.319 81.0658 128.66C76.3108 127.944 74.0006 126.934 74.0006 125.57V71.2573C73.9505 59.5809 76.9164 48.0579 82.6582 37.6219C87.1441 29.6359 91.6299 25.585 96.0185 25.585C100.407 25.585 104.923 29.6359 109.379 37.6219C115.108 48.0608 118.061 59.5836 117.999 71.2573V125.57C117.999 129.464 98.2689 129.58 96.0185 129.58ZM96.0185 26.2806C91.9215 26.2806 87.6525 30.202 83.3087 37.9356C77.6343 48.2774 74.7094 59.6927 74.7707 71.2573V125.57C74.7707 127.432 84.0937 128.885 95.9961 128.885C107.898 128.885 117.222 127.432 117.222 125.57V71.2573C117.285 59.7035 114.368 48.2982 108.706 37.9629C104.385 30.202 100.145 26.2806 96.0185 26.2806Z" fill="#9AB2CA"/>
<path d="M96 52.585C89.2607 52.585 83.0638 50.6311 79 47.2003L79.4556 46.585C83.3314 49.8388 89.5211 51.7773 96 51.7773C102.479 51.7773 108.669 49.8388 112.544 46.585L113 47.2003C108.936 50.6311 102.739 52.585 96 52.585Z" fill="#9AB2CA"/>
<path d="M75.9415 90.3475C71.1772 96.2919 65.6163 110.261 64.982 120.999C64.9563 121.382 65.031 121.766 65.1988 122.112C65.3665 122.458 65.6215 122.754 65.9387 122.972C66.2558 123.189 66.6241 123.32 67.0073 123.352C67.3905 123.383 67.7753 123.315 68.1238 123.152C70.2398 122.156 72.5136 121.537 74.8426 121.323C75.711 121.242 76.5189 120.843 77.1121 120.204C77.7052 119.565 78.0421 118.729 78.0582 117.857L78.6409 91.3063C78.6412 90.9922 78.5442 90.6856 78.3632 90.4289C78.1822 90.1722 77.9261 89.9779 77.6301 89.8728C77.3341 89.7677 77.0128 89.7568 76.7104 89.8419C76.408 89.9269 76.1394 90.1035 75.9415 90.3475Z" fill="white"/>
<path d="M67.1946 123.764C66.6842 123.763 66.1858 123.609 65.7638 123.322C65.385 123.069 65.0788 122.722 64.8757 122.314C64.6726 121.907 64.5796 121.453 64.6059 120.999C65.2255 110.165 70.9191 96.0337 75.6687 90.1335C75.9161 89.8221 76.2548 89.5959 76.6373 89.4869C77.0198 89.3779 77.4269 89.3915 77.8013 89.5258C78.1757 89.6601 78.4985 89.9083 78.7245 90.2356C78.9506 90.5629 79.0683 90.9528 79.0613 91.3504L78.4713 117.901C78.454 118.864 78.0829 119.788 77.4286 120.495C76.7744 121.202 75.8828 121.644 74.9238 121.736C72.622 121.937 70.3743 122.547 68.2862 123.536C67.9443 123.694 67.5711 123.772 67.1946 123.764ZM76.2292 90.576C71.5755 96.3951 65.963 110.327 65.3508 121.021C65.3321 121.346 65.3992 121.671 65.5454 121.962C65.6917 122.253 65.912 122.501 66.1842 122.68C66.4436 122.857 66.7449 122.963 67.058 122.988C67.3711 123.013 67.6852 122.955 67.969 122.82C70.1273 121.79 72.4529 121.156 74.8353 120.947C75.6116 120.873 76.3334 120.515 76.8626 119.942C77.3919 119.37 77.6915 118.622 77.7043 117.842L78.2869 91.2914C78.2981 91.0525 78.2326 90.8162 78.0999 90.6172C77.9672 90.4181 77.7743 90.2667 77.5494 90.1852C77.3211 90.098 77.0708 90.0868 76.8356 90.1532C76.6004 90.2197 76.393 90.3602 76.244 90.5539L76.2292 90.576Z" fill="#9AB2CA"/>
<path d="M102.5 94.585C109.404 94.585 115 87.1977 115 78.085C115 68.9723 109.404 61.585 102.5 61.585C95.5964 61.585 90 68.9723 90 78.085C90 87.1977 95.5964 94.585 102.5 94.585Z" fill="#3B8EDF"/>
<path d="M103.5 91.585C108.747 91.585 113 85.5408 113 78.085C113 70.6291 108.747 64.585 103.5 64.585C98.2533 64.585 94 70.6291 94 78.085C94 85.5408 98.2533 91.585 103.5 91.585Z" fill="white"/>
<path d="M29.917 231.213C29.8161 231.247 29.7061 231.239 29.6107 231.192C29.5153 231.145 29.4421 231.063 29.4069 230.963C29.2866 230.598 29.1362 230.143 28.9673 229.632C27.5458 225.729 24.5938 217.616 28.0998 211.277C30.2278 207.397 34.4283 204.736 40.5868 203.369C59.9326 199.083 68.6456 190.449 71.6622 172.59C73.0034 164.659 80.434 161.148 87.0075 158.075C92.0281 155.71 96.7686 153.483 97.9752 149.659C98.7114 147.327 98.1079 144.512 96.1371 141.062C96.1106 141.016 96.0936 140.966 96.087 140.913C96.0804 140.861 96.0843 140.807 96.0986 140.756C96.1128 140.705 96.1371 140.658 96.17 140.616C96.2029 140.575 96.2437 140.54 96.2901 140.515C96.3351 140.488 96.3848 140.472 96.4364 140.465C96.4879 140.458 96.5403 140.462 96.5905 140.476C96.6406 140.49 96.6875 140.513 96.7283 140.545C96.7692 140.578 96.8032 140.618 96.8285 140.663C98.9224 144.321 99.5464 147.338 98.7372 149.897C97.4224 154.052 92.5302 156.359 87.3461 158.794C80.6231 161.955 73.7203 165.207 72.4525 172.725C69.3672 190.964 60.4811 199.779 40.7642 204.165C34.8368 205.479 30.8093 208.005 28.7984 211.676C25.4844 217.726 28.353 225.61 29.7306 229.403C29.9018 229.921 30.0895 230.372 30.2121 230.743C30.2339 230.845 30.2152 230.95 30.16 231.038C30.1049 231.126 30.0178 231.189 29.917 231.213Z" fill="white"/>
<path d="M84.4803 205.299C84.3765 205.297 84.2774 205.255 84.2033 205.183C84.1292 205.11 84.0858 205.011 84.082 204.908V204.487C83.9567 197.112 83.787 187.075 94.9604 185.636C101.598 184.788 105.5 183.188 106.938 180.754C108.376 178.32 107.144 175.082 105.927 172C104.865 169.315 103.774 166.542 104.452 164.189C105.534 160.539 107.474 157.201 110.109 154.454C113.103 151.025 114.755 149.137 108.988 140.581C108.931 140.493 108.911 140.386 108.931 140.282C108.952 140.179 109.012 140.088 109.099 140.028C109.142 139.999 109.191 139.979 109.243 139.969C109.294 139.958 109.347 139.958 109.398 139.969C109.45 139.979 109.498 139.999 109.542 140.028C109.585 140.058 109.623 140.095 109.652 140.139C115.758 149.203 113.856 151.379 110.706 154.978C108.154 157.644 106.273 160.88 105.219 164.418C104.6 166.505 105.595 169.035 106.65 171.705C107.941 174.972 109.268 178.342 107.609 181.16C106.038 183.822 101.923 185.548 95.0711 186.433C84.613 187.775 84.7458 197.429 84.8933 204.473V204.893C84.8943 204.945 84.8849 204.997 84.8658 205.046C84.8467 205.095 84.8182 205.139 84.7819 205.177C84.7456 205.214 84.7022 205.245 84.6543 205.265C84.6063 205.286 84.5547 205.298 84.5024 205.299H84.4803Z" fill="white"/>
<path d="M0.256754 190.356C0.184251 190.282 0.155745 190.169 0.177108 190.041C0.19847 189.913 0.268067 189.779 0.371581 189.668L0.801962 189.226C8.26259 181.384 18.4172 170.711 27.895 176.994C33.5191 180.732 37.9529 181.771 41.4749 180.216C44.997 178.66 47.4292 174.396 49.7134 170.306C51.7008 166.742 53.7577 163.065 56.6525 161.065C61.1643 157.982 65.9713 155.825 70.672 154.775C76.3284 153.258 79.4449 152.425 84.0712 139.406C84.1211 139.273 84.2163 139.147 84.3368 139.052C84.4572 138.958 84.5935 138.904 84.7168 138.902C84.7778 138.902 84.8336 138.914 84.8809 138.94C84.9281 138.965 84.966 139.002 84.9923 139.048C85.0186 139.095 85.0328 139.15 85.0341 139.211C85.0354 139.272 85.0237 139.338 84.9998 139.404C80.0956 153.195 76.5049 154.155 70.5639 155.742C66.0052 156.766 61.3448 158.856 56.968 161.84C54.3873 163.603 52.5109 166.957 50.5332 170.5C48.1131 174.836 45.6137 179.306 41.5405 181.11C37.6892 182.814 32.9739 181.757 27.1588 177.908C18.2917 172.024 8.50332 182.267 1.39832 189.776L0.967936 190.218C0.915089 190.274 0.855171 190.322 0.791626 190.36C0.72808 190.398 0.662144 190.424 0.597571 190.439C0.532998 190.453 0.471064 190.455 0.415306 190.443C0.359548 190.432 0.311064 190.407 0.272606 190.372L0.256754 190.356Z" fill="white"/>
<path d="M131.477 148.051H126.1V164.232H131.477V148.051Z" fill="white"/>
<path d="M131.477 165.36H126.1V168.406H131.477V165.36Z" fill="white"/>
<path d="M131.477 170.257H126.1V171.777H131.477V170.257Z" fill="white"/>
<path d="M131.477 174.557H126.1V175.317H131.477V174.557Z" fill="white"/>
<path d="M123.423 149.541L128.785 140.255L134.147 149.541H123.423Z" fill="white"/>
<path d="M46.4048 122.016H43.0122V132.231H46.4048V122.016Z" fill="#8AE0F2"/>
<path d="M46.4048 132.946H43.0122V134.871H46.4048V132.946Z" fill="#8AE0F2"/>
<path d="M46.4048 136.044H43.0122V137.003H46.4048V136.044Z" fill="#8AE0F2"/>
<path d="M46.4048 138.758H43.0122V139.237H46.4048V138.758Z" fill="#8AE0F2"/>
<path d="M41.3235 122.961L44.7087 117.09L48.1013 122.961H41.3235Z" fill="#8AE0F2"/>
<path d="M143.475 62.646H139.161V75.6263H143.475V62.646Z" fill="#3DD679"/>
<path d="M143.475 76.5337H139.161V78.9749H143.475V76.5337Z" fill="#3DD679"/>
<path d="M143.475 80.4648H139.161V81.6891H143.475V80.4648Z" fill="#3DD679"/>
<path d="M143.475 83.916H139.161V84.5282H143.475V83.916Z" fill="#3DD679"/>
<path d="M137.015 63.8405L141.314 56.3916L145.614 63.8405H137.015Z" fill="#3DD679"/>
</g>
<defs>
<clipPath id="clip0_12258_323968">
<rect width="180" height="184" fill="white" transform="translate(0 0.584961)"/>
</clipPath>
</defs>
</svg>
