<svg width="180" height="185" viewBox="0 0 180 185" fill="none" xmlns="http://www.w3.org/2000/svg">
<g clip-path="url(#clip0_12258_324375)">
<path d="M80.8526 65.0199C88.9477 66.5242 95.1142 59.8299 97.1971 53.8476C99.1227 48.286 100.133 42.464 102.758 37.1563C106.431 29.8009 115.663 26.6269 123.831 27.5634C131.999 28.4999 139.858 34.949 146.992 39.0254L143.913 81.8035C143.913 81.8035 128.644 64.4847 121.064 63.9834C108.423 63.0969 108.486 83.9154 96.1055 86.6172C96.1055 86.6172 78.7363 90.7663 67.5433 75.3765C60.4439 65.6013 60.1597 53.9842 60.1597 53.9842C60.1597 53.9842 65.5802 62.1916 80.8526 65.0199Z" fill="white"/>
<path d="M147.532 36.2026C147.45 36.2026 145.845 56.9909 143.95 82.6336C142.054 108.276 140.577 129.072 140.659 129.075C140.74 129.079 142.339 108.29 144.241 82.6406C146.142 56.9909 147.613 36.2061 147.532 36.2026Z" fill="white" stroke="white"/>
<g opacity="0.3">
<path d="M106.143 51.3037C104.763 56.0513 102.748 60.5908 100.153 64.799C97.8088 68.4655 94.2531 71.5538 89.9919 72.4433C89.2119 72.5481 88.4469 72.7445 87.7128 73.0284C87.3468 73.1772 87.0277 73.4219 86.7889 73.7367C86.5502 74.0516 86.4007 74.4249 86.3562 74.8175C86.3559 75.9971 87.5352 76.7677 88.5943 77.2896C90.0653 78.0973 91.6388 78.7024 93.272 79.0884C94.8768 79.3938 96.2088 79.5707 97.3406 78.2872C98.4354 77.2146 99.4196 76.0347 100.279 74.7653C103.996 68.4351 105.836 59.3842 106.143 52.2265" fill="#9AB2CA"/>
</g>
<path d="M95.1013 80.1642C95.1013 80.1642 95.2297 80.1081 95.4624 79.9557C95.7993 79.7361 96.1235 79.4978 96.4336 79.2418C97.5767 78.2966 98.5865 77.2009 99.4356 75.9848C100.693 74.1795 101.706 72.2154 102.446 70.1439C103.347 67.6168 104.09 65.0362 104.671 62.417C105.775 57.6706 106.472 52.8386 106.754 47.9737C106.859 46.1121 106.875 44.6035 106.876 43.5604C106.876 43.0709 106.876 42.6777 106.876 42.3567C106.89 42.218 106.89 42.0782 106.876 41.9395C106.84 42.0755 106.824 42.216 106.828 42.3567C106.828 42.6777 106.828 43.0709 106.779 43.5523C106.731 44.5955 106.674 46.104 106.529 47.9576C106.163 52.7936 105.432 57.5949 104.342 62.3207C103.753 64.9262 103.013 67.4955 102.126 70.0154C101.398 72.061 100.416 74.0072 99.203 75.8082C98.3871 77.021 97.4246 78.1284 96.3373 79.1054C95.5588 79.8193 95.0772 80.1401 95.1013 80.1642Z" fill="#263238"/>
<path d="M115.705 127.356H163.014V133.158H115.705V127.356Z" fill="#3CD679"/>
<g opacity="0.3">
<path opacity="0.5" d="M115.705 127.356H130.469V133.158H115.705V127.356Z" fill="black"/>
</g>
<path d="M75.6863 144.851H122.995V150.652H75.6863V144.851Z" fill="#8ADFF2"/>
<g opacity="0.3">
<path opacity="0.5" d="M75.6828 144.851H90.447V150.652H75.6828V144.851Z" fill="black"/>
</g>
<path d="M35.9048 161.585H83.2131V167.387H35.9048V161.585Z" fill="#3CD679"/>
<g opacity="0.3">
<path opacity="0.5" d="M35.9047 161.585H50.6689V167.387H35.9047V161.585Z" fill="black"/>
</g>
<path d="M135.35 126.828C130.499 118.097 119.861 110.001 107.959 113.321C96.0569 116.641 89.8642 132.072 90.2576 138.956" stroke="white" stroke-width="0.7"/>
<path d="M90.7166 139.67C84.8954 131.498 76.1977 128.178 64.2957 131.499C52.3938 134.819 46.2011 150.25 46.5944 157.134" stroke="white" stroke-width="0.7"/>
<path d="M47.0576 157.134C41.2364 148.962 32.5387 145.642 20.6368 148.962C8.73483 152.282 0.977519 163.696 0.977519 183.585" stroke="white" stroke-width="0.7"/>
</g>
<defs>
<clipPath id="clip0_12258_324375">
<rect width="180" height="184" fill="white" transform="translate(0 0.584961)"/>
</clipPath>
</defs>
</svg>
